<svg width="320" height="320" viewBox="0 0 320 320" fill="none" xmlns="http://www.w3.org/2000/svg">
<g clip-path="url(#clip0_1103_707)">
<path d="M243.937 0H76.0624C34.0543 0 0 34.0543 0 76.0624V243.937C0 285.945 34.0543 319.999 76.0624 319.999H243.937C285.945 319.999 319.999 285.945 319.999 243.937V76.0624C319.999 34.0543 285.945 0 243.937 0Z" fill="#FC4A6E"/>
<path opacity="0.75" d="M256.686 95.7711C196.876 90.0568 198.019 37.4854 198.019 37.4854H159.454V203.507C158.482 221.262 143.801 235.161 126.019 235.161C107.526 235.161 92.5337 220.169 92.5337 201.676C92.5337 183.182 107.526 168.19 126.019 168.19C129.922 168.19 133.795 168.873 137.463 170.207L137.841 126.373C133.759 125.681 129.626 125.333 125.486 125.333C84.6693 125.333 51.5811 158.421 51.5811 199.238C51.5811 240.054 84.6693 273.143 125.486 273.143C164.908 273.143 197.391 242.199 199.304 202.823V116.343C199.304 116.343 220.495 134.628 256.686 135.39V95.7711Z" fill="white"/>
<path opacity="0.75" d="M266.666 106.324C206.857 100.609 208 48.0378 208 48.0378H169.435V214.059C168.463 231.815 153.782 245.714 136 245.714C117.506 245.714 102.514 230.722 102.514 212.228C102.514 193.735 117.506 178.743 136 178.743C139.902 178.743 143.775 179.425 147.443 180.759L147.822 136.926C143.74 136.233 139.607 135.885 135.466 135.885C94.6498 135.885 61.5615 168.974 61.5615 209.79C61.5615 250.607 94.6498 283.695 135.466 283.695C174.889 283.695 207.371 252.752 209.284 213.376V126.895C209.284 126.895 230.476 145.181 266.666 145.943V106.324Z" fill="white"/>
</g>
<defs>
<clipPath id="clip0_1103_707">
<rect width="320" height="320" fill="white"/>
</clipPath>
</defs>
</svg>
