<?xml version="1.0" standalone="no"?>
<!DOCTYPE svg PUBLIC "-//W3C//DTD SVG 20010904//EN"
 "http://www.w3.org/TR/2001/REC-SVG-20010904/DTD/svg10.dtd">
<svg version="1.0" xmlns="http://www.w3.org/2000/svg"
 width="3502.000000pt" height="3502.000000pt" viewBox="0 0 3502.000000 3502.000000"
 preserveAspectRatio="xMidYMid meet">
<metadata>
Created by potrace 1.14, written by Peter Selinger 2001-2017
</metadata>
<g transform="translate(0.000000,3502.000000) scale(0.100000,-0.100000)"
fill="#000000" stroke="none">
<path d="M12928 29465 c-2 -2 -34 -6 -73 -9 -76 -7 -121 -13 -160 -21 -14 -3
-37 -7 -52 -10 -54 -10 -188 -48 -197 -57 -6 -4 -16 -8 -22 -8 -7 0 -25 -5
-41 -11 -15 -6 -29 -10 -30 -10 -1 0 -37 -19 -80 -41 -43 -23 -88 -46 -100
-52 -13 -6 -23 -14 -23 -18 0 -5 -7 -8 -15 -8 -8 0 -15 -4 -15 -9 0 -5 -8 -12
-17 -15 -10 -4 -32 -19 -49 -34 -17 -15 -56 -49 -87 -76 -31 -27 -54 -52 -52
-57 3 -4 -4 -10 -15 -14 -11 -3 -20 -9 -20 -13 0 -4 -14 -23 -30 -42 -28 -32
-90 -120 -115 -162 -67 -114 -155 -326 -180 -435 -3 -10 -9 -36 -14 -58 -5
-22 -12 -51 -15 -65 -3 -14 -7 -36 -10 -49 -3 -12 -8 -43 -10 -67 -3 -24 -8
-54 -11 -66 -19 -85 -32 -545 -17 -599 5 -20 6 -43 1 -50 -4 -7 -4 -16 0 -19
5 -3 12 -31 15 -63 4 -32 9 -64 11 -70 3 -7 7 -25 9 -42 15 -87 86 -283 148
-410 52 -107 106 -207 117 -215 3 -3 12 -17 20 -32 8 -16 18 -28 23 -28 4 0 8
-5 8 -11 0 -7 16 -31 35 -54 19 -23 31 -45 28 -49 -4 -3 -2 -6 4 -6 5 0 31
-26 56 -57 25 -32 68 -83 96 -113 96 -103 545 -550 553 -550 4 0 8 -4 8 -8 0
-12 109 -120 115 -114 3 3 5 -2 5 -11 0 -9 4 -17 8 -17 13 0 92 -80 92 -92 0
-6 2 -9 5 -6 8 8 286 -276 374 -382 68 -83 110 -145 146 -215 11 -22 23 -42
26 -45 4 -3 9 -14 11 -25 1 -11 5 -22 8 -25 19 -19 86 -249 95 -327 20 -181
26 -376 13 -483 -17 -138 -65 -239 -135 -280 -46 -27 -137 -47 -202 -44 -153
7 -250 96 -297 272 -24 91 -27 159 -27 655 l-1 467 -25 1 c-147 5 -1344 2
-1348 -4 -2 -4 -4 -209 -3 -455 1 -246 2 -455 1 -464 0 -10 4 -18 9 -18 6 0 6
-10 0 -24 -5 -13 -7 -26 -5 -28 2 -2 6 -39 10 -83 4 -44 8 -91 11 -105 2 -14
6 -50 10 -80 3 -30 7 -63 10 -72 5 -19 9 -38 19 -94 8 -45 13 -68 15 -71 3 -4
5 -12 15 -58 8 -42 62 -203 90 -270 44 -106 140 -275 156 -275 5 0 9 -6 9 -14
0 -26 128 -159 245 -254 61 -50 222 -135 330 -175 39 -14 79 -29 90 -33 11 -4
22 -8 25 -8 3 -1 11 -5 18 -10 7 -4 16 -6 19 -3 2 3 22 -1 43 -8 21 -7 51 -16
67 -19 15 -2 53 -10 83 -16 30 -7 62 -12 70 -12 8 0 44 -4 80 -8 220 -28 486
-30 690 -4 74 9 242 44 290 61 25 8 50 16 55 17 6 2 19 7 30 11 104 42 144 59
165 73 14 9 27 17 30 17 23 1 172 117 246 190 82 81 194 228 194 255 0 5 5 10
11 10 5 0 7 5 4 10 -3 6 -2 10 3 10 4 0 14 16 22 35 8 19 18 35 22 35 5 0 7 4
3 9 -3 5 2 17 11 25 8 9 13 16 10 16 -4 0 2 17 12 38 11 20 29 66 41 102 13
36 25 72 28 80 7 17 9 25 17 55 3 11 14 54 25 95 17 64 33 139 55 260 2 14 5
25 6 25 1 0 6 45 14 140 3 33 6 60 7 60 8 0 20 273 20 450 0 190 -6 291 -26
435 -2 14 -6 43 -9 65 -6 47 -34 173 -43 195 -3 8 -7 28 -9 44 -2 16 -8 34
-12 40 -9 12 -34 92 -32 102 1 4 -2 10 -7 13 -4 3 -14 24 -22 46 -8 22 -29 72
-47 111 -19 39 -34 76 -34 82 0 7 -4 12 -8 12 -5 0 -26 34 -47 75 -22 41 -42
75 -46 75 -3 0 -12 14 -19 30 -7 17 -15 30 -19 30 -4 0 -14 12 -23 28 -9 15
-33 45 -52 67 -20 22 -36 43 -36 47 0 4 -10 18 -22 31 -13 12 -48 52 -78 87
-62 73 -96 109 -245 261 -57 59 -106 105 -107 104 -2 -2 -14 12 -28 31 -14 18
-29 34 -33 34 -4 0 -52 42 -105 94 -137 133 -292 282 -292 281 0 -1 -44 42
-296 286 -118 114 -234 245 -234 263 0 4 -9 16 -19 28 -23 24 -101 179 -101
200 0 8 -5 19 -10 24 -16 16 -24 88 -23 199 0 112 4 145 15 145 4 0 7 3 6 8
-7 32 63 112 126 144 47 24 89 33 176 38 39 3 139 -26 160 -45 11 -10 20 -15
20 -10 0 4 10 -5 22 -21 12 -16 25 -31 29 -34 15 -12 40 -74 49 -120 5 -27 10
-163 10 -302 l1 -253 697 1 c383 1 706 2 717 3 19 1 20 7 19 74 -3 111 -14
322 -20 351 -2 14 -6 49 -8 78 -5 60 -24 195 -31 218 -2 8 -7 29 -10 45 -8 38
-13 60 -15 60 -1 0 -3 14 -5 30 -4 32 -9 51 -17 75 -3 8 -18 56 -33 105 -15
50 -34 106 -43 125 -31 73 -97 205 -104 208 -5 2 -6 7 -3 12 3 4 -2 13 -10 20
-8 7 -15 19 -15 26 0 8 -4 14 -9 14 -5 0 -12 8 -15 18 -3 9 -16 29 -28 44 -13
15 -34 41 -48 59 -37 48 -98 109 -168 167 -70 57 -241 162 -266 162 -9 0 -16
3 -16 8 0 4 -15 12 -32 19 -137 48 -253 84 -285 88 -21 4 -45 8 -53 11 -18 7
-54 14 -95 19 -16 2 -46 7 -65 10 -76 13 -531 30 -542 20z"/>
<path d="M16627 29464 c-1 -2 -42 -6 -91 -9 -49 -3 -91 -7 -95 -9 -3 -2 -28
-7 -56 -10 -27 -4 -57 -9 -65 -11 -8 -2 -29 -7 -46 -9 -17 -3 -69 -17 -115
-31 -46 -14 -88 -27 -94 -28 -57 -15 -292 -128 -328 -157 -7 -5 -48 -38 -92
-72 -44 -34 -93 -76 -110 -94 -75 -80 -115 -126 -115 -134 0 -4 -4 -10 -9 -12
-21 -8 -127 -191 -184 -318 -37 -84 -112 -338 -102 -348 2 -3 0 -12 -5 -21 -5
-9 -11 -37 -14 -61 -3 -25 -8 -56 -11 -70 -4 -23 -18 -158 -18 -187 0 -7 -4
-13 -9 -13 -5 0 -7 -4 -4 -9 3 -5 7 -881 9 -1947 2 -1067 7 -1959 11 -1984 4
-25 11 -76 17 -115 17 -112 24 -146 50 -245 11 -41 22 -83 24 -93 8 -35 16
-62 25 -82 5 -11 24 -58 42 -105 18 -47 36 -86 40 -88 4 -2 8 -12 8 -23 0 -10
5 -19 10 -19 6 0 10 -7 10 -16 0 -8 7 -22 15 -31 8 -8 13 -19 10 -24 -4 -5 -2
-9 3 -9 4 0 19 -19 32 -42 21 -37 40 -66 120 -173 25 -34 176 -181 217 -211
21 -16 41 -33 45 -39 5 -7 8 -7 8 0 0 6 3 5 8 -1 23 -35 235 -144 362 -186 42
-14 65 -21 165 -47 76 -19 159 -33 290 -46 62 -7 343 -7 413 -1 95 9 270 36
298 46 13 5 24 7 24 5 0 -2 12 0 28 6 15 6 35 13 45 15 41 10 55 14 102 32
128 48 324 150 333 174 2 4 8 8 13 8 5 0 18 8 29 18 11 9 36 31 56 47 51 41
151 142 183 185 14 19 29 37 32 40 12 11 109 160 109 168 0 5 7 15 15 22 9 7
13 15 11 17 -2 3 9 27 25 54 16 28 29 53 29 58 0 4 6 21 14 37 17 34 38 84 41
99 2 6 14 47 28 92 41 130 59 209 81 373 29 209 35 278 22 298 -4 7 -2 12 3
12 13 0 14 3649 1 3750 -4 36 -13 110 -20 165 -7 54 -14 108 -17 120 -3 11 -9
38 -13 60 -23 104 -63 246 -78 270 -4 6 -7 15 -8 21 -4 23 -58 139 -73 158 -9
10 -15 20 -13 23 4 4 -83 148 -103 170 -5 6 -26 31 -45 54 -64 76 -144 153
-226 217 -44 34 -84 62 -89 62 -4 0 -22 10 -39 23 -34 25 -170 88 -273 127
-18 7 -36 12 -40 12 -4 0 -19 5 -33 10 -14 5 -54 16 -90 24 -36 8 -76 17 -90
20 -14 3 -36 7 -50 9 -14 2 -25 4 -25 5 0 1 -16 3 -35 4 -76 6 -175 19 -182
23 -5 2 -8 -1 -8 -7 0 -7 -6 -8 -17 -1 -16 8 -318 12 -326 5z m270 -1297 c68
-12 110 -48 147 -122 19 -38 38 -89 41 -112 4 -24 11 -43 16 -43 6 0 6 -7 0
-18 -7 -13 -6 -23 1 -30 9 -9 12 -494 11 -1894 -1 -1679 -3 -1893 -17 -1978
-9 -52 -18 -99 -19 -105 -2 -5 -7 -23 -12 -40 -4 -16 -10 -34 -14 -40 -3 -5
-6 -17 -8 -25 -1 -8 -9 -20 -17 -26 -9 -6 -13 -14 -9 -17 3 -4 1 -7 -5 -7 -7
0 -12 -7 -12 -15 0 -8 -7 -15 -15 -15 -8 0 -15 -4 -15 -9 0 -18 -103 -53 -159
-53 -82 -1 -181 23 -181 44 0 6 -3 9 -6 5 -19 -18 -114 112 -114 156 0 9 -4
18 -9 21 -10 7 -20 55 -40 211 -14 109 -8 3737 7 3800 60 255 195 354 429 312z"/>
<path d="M20338 29465 c-2 -2 -38 -6 -82 -9 -43 -4 -81 -8 -85 -10 -3 -2 -28
-6 -56 -10 -104 -13 -222 -43 -340 -88 -93 -35 -219 -97 -223 -109 -2 -5 -9
-9 -16 -9 -7 0 -23 -9 -36 -20 -13 -11 -26 -20 -29 -20 -3 0 -18 -10 -33 -23
-14 -12 -41 -33 -58 -47 -32 -25 -93 -86 -149 -150 -43 -48 -134 -180 -125
-180 4 0 -1 -7 -12 -15 -10 -8 -15 -15 -11 -15 5 0 0 -12 -11 -27 -22 -31 -85
-165 -108 -228 -21 -56 -65 -194 -70 -216 -2 -11 -6 -28 -8 -39 -3 -11 -7 -24
-10 -28 -2 -4 -7 -29 -10 -56 -3 -26 -8 -51 -11 -56 -7 -12 -44 -264 -49 -340
-3 -36 -5 -65 -6 -65 -11 0 -17 -3664 -6 -3770 11 -106 16 -152 21 -195 9 -68
54 -260 70 -302 8 -21 12 -38 9 -38 -4 0 -2 -6 3 -12 6 -7 20 -43 33 -80 13
-38 27 -68 32 -68 4 0 7 -3 6 -7 -2 -11 55 -125 81 -161 11 -17 21 -35 21 -41
0 -6 5 -11 10 -11 6 0 10 -7 10 -15 0 -8 5 -15 10 -15 6 0 10 -7 10 -15 0 -8
4 -15 9 -15 4 0 21 -18 35 -41 28 -42 232 -249 245 -249 4 0 21 -11 37 -25 42
-37 182 -121 266 -160 128 -58 373 -133 402 -122 8 3 17 2 22 -3 5 -4 38 -11
74 -15 36 -4 79 -9 95 -11 51 -6 368 -6 405 0 19 3 67 8 105 11 85 8 331 52
354 64 9 5 19 9 24 10 62 4 399 154 427 190 3 3 23 18 45 33 86 57 235 204
235 231 0 6 3 7 6 4 4 -4 31 30 60 76 30 45 59 88 64 95 6 6 8 12 5 12 -4 0 4
15 17 33 13 17 23 34 22 37 -1 3 12 34 28 70 16 36 30 73 31 83 1 9 5 17 9 17
4 0 7 3 6 8 -1 4 5 30 13 57 9 28 21 70 27 95 31 131 29 120 37 195 4 33 8 62
10 65 2 3 6 39 10 80 4 41 9 78 12 83 2 4 -1 7 -8 7 -8 0 -8 4 -2 13 6 7 10
107 10 234 1 122 4 226 8 232 3 6 3 11 -2 11 -10 0 -9 293 1 309 4 6 4 11 -1
11 -10 0 -9 293 1 309 4 6 4 11 -1 11 -10 0 -9 293 1 309 4 6 3 11 -1 11 -5 0
-7 16 -5 35 3 25 0 35 -9 36 -68 4 -1379 1 -1390 -3 -12 -5 -15 -26 -14 -110
1 -57 4 -109 8 -115 4 -7 4 -14 -1 -17 -10 -6 -9 -207 1 -223 4 -6 4 -14 -1
-16 -9 -7 -9 -368 1 -384 4 -6 4 -14 -1 -17 -9 -6 -9 -207 1 -222 3 -6 3 -14
-1 -18 -3 -4 -7 -62 -8 -129 -1 -67 -4 -145 -8 -173 -14 -113 -53 -221 -97
-267 -10 -12 -19 -24 -19 -29 0 -4 -7 -8 -15 -8 -8 0 -15 -4 -15 -8 0 -11 -61
-38 -110 -50 -56 -13 -151 -2 -200 23 -33 17 -92 73 -112 105 -24 39 -61 159
-55 180 3 11 0 21 -6 23 -6 2 -11 85 -13 235 -1 128 -6 236 -9 242 -3 5 -3 10
2 10 9 0 9 601 0 624 -4 9 -3 16 1 16 8 0 7 602 -1 624 -4 9 -3 16 1 16 8 0 7
602 -1 624 -4 9 -3 16 1 16 8 0 7 602 -1 624 -4 9 -3 16 1 16 6 0 8 588 2 615
-1 6 -1 12 0 15 1 3 3 46 5 95 1 50 6 108 9 130 16 98 63 221 93 238 7 5 10
13 7 19 -4 6 -2 8 4 4 6 -3 14 -2 17 4 4 6 27 20 53 32 44 21 123 27 235 18
46 -4 129 -61 159 -110 51 -84 69 -183 72 -401 2 -80 6 -150 9 -156 4 -7 4
-14 -1 -16 -9 -7 -9 -368 1 -384 4 -6 4 -14 -1 -17 -10 -6 -9 -207 1 -223 4
-6 4 -14 -1 -17 -9 -5 -9 -207 0 -222 5 -8 211 -11 698 -11 l691 0 -4 721 c-2
397 -7 739 -10 761 -19 118 -32 185 -45 240 -21 82 -40 144 -48 157 -5 7 -9
20 -11 28 -3 21 -86 194 -95 198 -5 2 -8 10 -8 18 0 8 -5 14 -11 14 -5 0 -8 4
-5 9 4 5 3 11 -1 13 -5 1 -20 21 -36 44 -15 22 -36 50 -47 62 -11 12 -20 24
-20 27 0 8 -150 155 -189 185 -17 14 -44 35 -59 47 -15 13 -30 23 -34 23 -4 0
-13 6 -20 13 -27 27 -241 142 -252 134 -1 -1 -10 4 -18 11 -42 34 -338 113
-483 128 -22 2 -56 7 -75 10 -36 6 -416 14 -422 9z"/>
<path d="M17 29402 c-16 -3 -17 -54 -17 -673 0 -444 3 -668 10 -664 5 3 10 3
10 -2 0 -9 221 -10 236 -1 5 4 16 3 24 -2 8 -5 22 -5 32 1 10 5 18 6 18 2 0
-5 44 -7 98 -5 119 3 143 2 183 -7 3 0 5 -1273 5 -2828 l0 -2828 702 -1 702 0
0 2823 c0 1553 2 2828 5 2833 3 4 45 7 95 6 49 -1 90 2 90 7 0 5 6 5 13 -2 10
-8 17 -7 25 1 7 7 12 8 12 3 0 -11 219 -13 236 -3 5 4 16 3 24 -2 8 -5 22 -5
32 1 10 5 18 6 18 2 0 -4 63 -8 140 -8 l140 0 0 35 c4 269 0 1303 -4 1307 -5
5 -2800 10 -2829 5z"/>
<path d="M3003 29397 c-2 -4 -4 -83 -4 -175 2 -239 1 -264 -4 -273 -3 -4 -1
-10 5 -14 6 -4 8 -11 4 -16 -3 -6 -5 -121 -5 -257 2 -318 2 -343 -4 -353 -3
-4 -1 -10 5 -14 6 -4 8 -11 4 -16 -3 -6 -5 -123 -4 -262 1 -292 1 -338 -6
-348 -2 -4 0 -10 6 -14 6 -4 8 -11 4 -17 -8 -12 -7 -415 1 -428 3 -6 3 -10 -2
-10 -4 0 -7 -87 -5 -192 3 -241 3 -289 -3 -299 -3 -4 -1 -10 5 -14 6 -4 8 -11
4 -17 -8 -12 -7 -415 1 -428 3 -6 3 -10 -2 -10 -4 0 -7 -51 -5 -113 3 -155 2
-208 -3 -218 -3 -4 -1 -10 5 -14 6 -4 7 -11 4 -17 -4 -6 -6 -49 -5 -97 2 -131
1 -183 -4 -192 -3 -4 -1 -10 5 -14 6 -4 7 -11 4 -17 -8 -13 -7 -255 1 -268 3
-6 3 -10 -2 -10 -4 0 -7 -87 -5 -192 3 -241 3 -289 -3 -299 -3 -4 -1 -10 5
-14 6 -4 8 -11 4 -17 -8 -12 -7 -415 1 -428 3 -6 3 -10 -2 -10 -4 0 -7 -51 -5
-113 3 -155 2 -208 -3 -218 -3 -4 -1 -10 5 -14 6 -4 7 -11 4 -17 -4 -6 -6 -49
-5 -97 2 -131 1 -183 -4 -192 -3 -4 -1 -10 5 -14 6 -4 7 -11 4 -17 -8 -13 -7
-255 1 -268 3 -6 3 -10 -2 -10 -4 0 -7 -87 -5 -192 3 -241 3 -289 -3 -299 -3
-4 -1 -10 5 -14 6 -4 8 -11 4 -16 -5 -8 -7 -347 -2 -404 0 -5 -1 -17 -3 -25
-4 -13 77 -15 676 -17 374 -1 689 0 700 2 20 4 20 12 20 1592 l0 1588 245 0
c156 0 248 3 252 10 5 7 8 7 8 0 0 -7 29 -10 75 -10 41 1 76 -1 76 -4 1 -4 2
-719 3 -1591 l1 -1585 698 -1 697 0 0 3503 0 3503 -57 1 c-74 0 -1233 0 -1293
0 l-45 -1 0 -1246 c0 -685 -3 -1248 -6 -1250 -4 -2 -26 -4 -50 -4 -64 0 -76 0
-106 -1 -16 -1 -41 0 -58 1 -16 1 -72 1 -122 0 -51 -1 -97 1 -103 5 -5 3 -10
2 -10 -3 0 -8 -82 -6 -106 2 -6 3 -27 1 -47 -3 -19 -5 -39 -6 -44 -2 -6 4 -9
506 -9 1253 1 1103 -1 1248 -14 1249 -132 5 -1373 2 -1377 -4z"/>
<path d="M6838 29399 c-7 -4 -10 -1163 -10 -3475 1 -1908 1 -3483 1 -3500 l1
-30 1445 0 c1304 0 1445 1 1446 15 1 9 2 316 3 683 l1 666 -242 0 c-133 0
-246 3 -251 6 -6 4 -13 2 -16 -2 -6 -10 -48 -8 -65 2 -5 4 -12 2 -15 -2 -6
-10 -48 -8 -65 2 -5 4 -12 2 -15 -2 -6 -10 -48 -8 -65 2 -5 4 -12 2 -15 -2 -6
-10 -48 -8 -65 2 -5 4 -12 2 -15 -2 -6 -10 -48 -8 -65 2 -5 4 -12 2 -15 -2 -6
-10 -48 -8 -65 2 -5 4 -12 2 -15 -2 -5 -8 -29 -9 -61 -2 -5 1 -14 2 -20 1 -28
-5 -385 -2 -394 3 -15 10 -14 1593 2 1598 6 2 293 3 637 2 344 -1 636 0 650 2
l25 5 -1 652 c-1 358 -2 654 -3 657 0 3 -297 5 -658 5 l-658 0 0 680 0 680
689 5 688 5 1 668 c0 367 -3 670 -6 673 -8 8 -2776 11 -2789 3z"/>
<path d="M22412 29395 c-4 -5 -7 -24 -8 -41 -1 -17 -4 -37 -8 -43 -4 -6 -4
-11 1 -11 7 0 9 -93 2 -110 -1 -3 0 -9 1 -15 6 -27 4 -117 -3 -122 -4 -2 -5
-9 -1 -14 9 -16 11 -80 2 -86 -5 -2 -5 -9 -2 -15 10 -15 10 -119 1 -125 -4 -2
-5 -9 -1 -14 9 -16 11 -80 2 -86 -5 -2 -5 -9 -2 -15 10 -15 10 -119 1 -125 -4
-2 -5 -9 -1 -14 9 -16 11 -80 2 -86 -5 -2 -5 -9 -2 -15 10 -15 10 -119 1 -125
-4 -2 -5 -9 -1 -14 9 -16 11 -80 2 -86 -5 -2 -5 -9 -2 -15 10 -15 10 -119 1
-125 -4 -2 -4 -9 -1 -15 10 -15 10 -188 1 -188 -5 0 -5 -5 -1 -11 9 -16 11
-109 1 -109 -4 0 -4 -8 0 -17 10 -21 9 -65 -1 -82 -4 -6 -4 -11 1 -11 4 0 8
-20 8 -45 0 -25 -4 -45 -8 -45 -5 0 -5 -5 -1 -11 9 -16 11 -109 1 -109 -4 0
-4 -8 0 -17 10 -21 9 -65 -1 -82 -4 -6 -4 -11 1 -11 4 0 8 -20 8 -45 0 -25 -4
-45 -8 -45 -5 0 -5 -5 -1 -11 9 -16 11 -109 1 -109 -4 0 -4 -8 0 -17 10 -21 9
-65 -1 -82 -4 -6 -4 -11 1 -11 4 0 8 -20 8 -45 0 -25 -4 -45 -8 -45 -5 0 -5
-5 -1 -11 9 -16 11 -109 1 -109 -4 0 -4 -8 0 -17 9 -19 9 -70 1 -79 -3 -3 -2
-21 2 -40 5 -19 4 -37 -1 -40 -5 -3 -6 -10 -3 -16 10 -15 10 -119 1 -125 -4
-2 -5 -9 -1 -14 9 -16 11 -80 2 -86 -5 -2 -5 -9 -2 -15 10 -15 10 -119 1 -125
-4 -2 -5 -9 -1 -14 9 -16 11 -80 2 -86 -5 -2 -5 -9 -2 -15 10 -15 10 -119 1
-125 -4 -2 -5 -9 -1 -14 9 -16 11 -80 2 -86 -5 -2 -5 -9 -2 -15 10 -15 10
-119 1 -125 -4 -2 -5 -9 -1 -14 9 -16 11 -80 2 -86 -5 -2 -5 -9 -2 -15 10 -15
10 -119 1 -125 -4 -2 -4 -9 -1 -15 9 -15 10 -149 1 -155 -4 -2 -4 -9 0 -15 9
-16 10 -138 0 -138 -4 0 -4 -8 0 -17 10 -21 9 -65 -1 -82 -4 -6 -3 -11 1 -11
10 0 10 -41 0 -57 -4 -5 -4 -13 0 -17 9 -9 9 -136 0 -136 -4 0 -4 -8 0 -17 10
-21 9 -65 -1 -82 -4 -6 -3 -11 1 -11 10 0 10 -41 0 -57 -4 -5 -4 -13 0 -17 9
-9 9 -136 0 -136 -4 0 -4 -8 0 -17 10 -21 9 -65 -1 -82 -4 -6 -3 -11 1 -11 10
0 10 -41 0 -57 -4 -5 -4 -13 0 -17 9 -9 9 -136 0 -136 -4 0 -4 -8 0 -17 5 -10
7 -31 6 -48 -4 -40 -3 -88 2 -93 2 -2 0 -15 -5 -28 -5 -13 -6 -24 -2 -24 4 0
6 -26 5 -57 -2 -51 -3 -88 -2 -135 0 -7 0 -26 -1 -43 0 -16 1 -47 2 -68 2 -21
0 -41 -4 -44 -5 -2 -6 -9 -2 -14 9 -16 11 -80 2 -86 -5 -2 -5 -9 -2 -15 10
-15 10 -119 1 -125 -4 -2 -5 -9 -1 -14 9 -16 11 -80 2 -86 -5 -2 -5 -9 -2 -15
10 -15 10 -119 1 -125 -4 -2 -5 -9 -1 -14 9 -16 11 -80 2 -86 -5 -2 -5 -9 -2
-15 10 -15 10 -119 1 -125 -4 -2 -4 -9 -1 -15 10 -15 10 -188 1 -188 -5 0 -5
-5 -1 -11 9 -16 11 -109 1 -109 -4 0 -4 -8 0 -17 10 -21 9 -65 -1 -82 -4 -6
-3 -11 1 -11 9 0 8 -74 -2 -90 -3 -6 -2 -10 3 -10 5 0 7 -10 5 -23 l-5 -23
679 0 678 0 3 135 c1 75 2 141 2 146 0 6 -1 39 -3 75 -2 36 1 71 6 78 5 6 6
12 1 12 -11 0 -11 161 0 178 4 7 3 12 -1 12 -12 0 -10 63 2 72 7 5 7 8 0 8
-12 0 -13 209 -1 228 4 7 3 12 -1 12 -12 0 -10 63 2 72 7 5 6 8 -1 8 -9 0 -11
53 -4 85 1 6 1 15 0 20 -8 34 -4 235 5 235 7 0 7 3 0 8 -12 8 -13 151 -2 170
5 7 4 12 -2 12 -7 0 -7 8 -1 25 5 13 6 26 2 29 -7 4 -8 114 -2 141 1 6 1 15 0
20 -8 34 -4 235 5 235 7 0 7 3 0 8 -12 8 -13 151 -2 170 5 7 4 12 -2 12 -7 0
-7 8 -1 25 5 13 6 26 2 29 -7 4 -8 114 -2 141 1 6 1 15 0 20 -8 34 -4 235 5
235 7 0 7 3 0 8 -12 8 -13 151 -2 170 5 7 4 12 -2 12 -7 0 -7 8 -1 25 5 13 6
26 2 29 -7 4 -8 114 -2 141 1 6 1 15 0 20 -8 34 -4 235 5 235 7 0 7 3 0 8 -12
8 -13 151 -2 170 5 7 4 12 -2 12 -7 0 -7 8 -1 25 5 13 6 26 2 29 -9 6 -8 268
2 284 4 7 3 12 -1 12 -12 0 -10 63 2 72 7 5 7 8 0 8 -12 0 -13 209 -1 228 4 7
4 12 -1 12 -4 0 -8 16 -8 35 0 19 5 35 10 35 7 0 6 3 0 8 -13 9 -13 175 0 184
7 5 7 8 0 8 -12 0 -13 149 -2 168 5 6 4 12 -2 12 -7 0 -7 8 -1 24 5 13 6 27 2
31 -11 11 -8 235 3 235 7 0 7 3 0 8 -12 8 -13 151 -2 170 5 7 4 12 -2 12 -7 0
-7 8 -1 24 5 13 6 27 2 31 -11 11 -8 235 3 235 7 0 7 3 0 8 -12 8 -13 151 -2
170 5 6 5 12 0 12 -10 0 -10 161 1 178 4 7 3 12 -1 12 -12 0 -10 63 2 72 7 5
7 8 0 8 -12 0 -13 209 -1 228 4 7 3 12 -1 12 -12 0 -10 63 2 72 7 5 6 8 -1 8
-9 0 -11 53 -4 85 1 6 1 15 0 20 -8 34 -4 235 5 235 7 0 7 3 0 8 -12 8 -13
151 -2 170 5 7 4 12 -2 12 -7 0 -7 8 -1 25 5 13 6 26 2 29 -10 6 -8 118 2 134
4 7 3 12 -2 12 -5 0 -8 27 -6 60 1 33 -2 63 -7 66 -5 3 -9 0 -9 -6 0 -6 -5 -8
-11 -4 -19 11 -1310 10 -1317 -1z"/>
<path d="M24583 29402 c-19 -3 -22 -11 -28 -85 -3 -45 -8 -98 -10 -117 -7 -66
-17 -160 -21 -213 -3 -49 -8 -98 -19 -192 -2 -22 -7 -74 -10 -115 -7 -81 -10
-108 -19 -185 -3 -27 -8 -77 -11 -110 -2 -33 -9 -103 -14 -155 -6 -52 -13
-124 -16 -160 -6 -72 -13 -142 -20 -210 -5 -41 -10 -92 -20 -205 -1 -22 -6
-65 -9 -95 -3 -30 -8 -84 -12 -120 -11 -124 -13 -145 -18 -185 -2 -22 -10
-102 -16 -177 -9 -95 -16 -135 -24 -131 -8 5 -8 3 -1 -8 11 -14 11 -27 1 -109
-3 -25 -8 -74 -11 -110 -3 -36 -8 -83 -10 -105 -3 -22 -7 -65 -10 -95 -5 -61
-12 -131 -20 -200 -2 -25 -7 -81 -11 -125 -3 -44 -8 -87 -9 -95 -2 -8 -6 -55
-10 -105 -4 -49 -9 -97 -10 -105 -2 -8 -6 -53 -10 -100 -3 -47 -8 -96 -10
-110 -3 -14 -7 -54 -10 -90 -4 -36 -8 -81 -10 -100 -2 -19 -7 -71 -11 -115
-11 -129 -12 -140 -14 -140 0 0 -3 -26 -5 -57 -2 -32 -6 -79 -9 -105 -8 -73
-46 -469 -52 -543 -3 -36 -7 -78 -10 -95 -2 -16 -6 -55 -9 -85 -2 -30 -6 -77
-9 -105 -3 -27 -8 -79 -11 -115 -3 -36 -7 -81 -10 -100 -13 -106 -16 -141 -20
-205 -2 -38 -6 -86 -9 -105 -3 -19 -8 -64 -11 -100 -15 -163 -25 -267 -32
-330 -3 -30 -7 -68 -8 -85 -2 -16 -3 -30 -4 -30 -1 0 -4 -30 -6 -66 -2 -37 -6
-84 -9 -105 -6 -43 -19 -189 -20 -216 0 -10 -3 -18 -7 -18 -4 0 -3 -15 1 -34
4 -19 4 -38 0 -43 -6 -7 -30 -235 -30 -284 0 -14 69 -15 680 -15 l680 0 1 25
c1 15 2 37 4 51 1 14 6 77 10 140 4 63 9 138 11 165 6 74 12 160 18 255 3 47
8 108 11 135 2 28 8 91 11 140 3 50 7 106 9 125 1 19 3 49 4 66 l1 32 424 -1
425 0 7 -66 c4 -36 8 -94 8 -128 1 -35 3 -63 7 -63 3 0 5 -10 6 -22 0 -13 3
-61 7 -108 4 -47 9 -107 12 -135 2 -27 6 -72 8 -100 3 -27 8 -84 11 -125 4
-41 8 -91 10 -110 2 -19 7 -78 11 -130 3 -52 12 -101 18 -109 9 -12 8 -13 -3
-7 -11 7 -11 5 -3 -10 10 -18 34 -19 669 -20 l659 0 -2 55 c-2 31 -4 57 -5 59
-4 5 -5 21 -13 117 -5 55 -10 109 -12 120 -2 11 -6 52 -8 90 -3 39 -8 88 -11
110 -3 22 -7 65 -9 95 -3 30 -8 82 -11 116 -3 33 -8 83 -10 110 -2 27 -7 69
-9 94 -3 25 -8 72 -11 105 -3 33 -10 109 -16 168 -6 60 -8 114 -6 122 3 7 2
16 -3 21 -4 5 -11 50 -14 99 -4 50 -9 108 -12 130 -2 22 -7 67 -9 100 -2 33
-4 60 -5 60 -2 0 -7 50 -15 140 -4 44 -9 98 -11 120 -2 22 -6 65 -8 95 -3 30
-7 75 -10 100 -3 25 -10 99 -16 165 -12 127 -18 188 -24 245 -2 19 -7 71 -11
115 -3 44 -8 98 -11 120 -2 22 -6 65 -9 95 -2 30 -7 78 -10 105 -3 28 -7 70
-10 95 -2 25 -7 79 -11 120 -4 41 -8 96 -8 122 -1 27 -4 48 -7 48 -3 0 -6 24
-8 53 -1 28 -4 70 -6 92 -6 46 -24 237 -31 310 -14 163 -25 278 -30 325 -3 25
-7 65 -9 90 -3 25 -6 65 -9 90 -2 25 -7 77 -10 115 -7 76 -11 119 -21 205 -3
30 -8 82 -10 115 -2 33 -5 60 -5 60 -1 0 -4 32 -6 70 -3 39 -7 81 -11 95 -3
14 -7 45 -8 70 -3 53 -14 179 -21 235 -2 22 -7 67 -9 100 -3 33 -7 80 -10 105
-4 44 -10 102 -20 210 -10 109 -16 166 -31 303 -5 52 -11 121 -18 207 -5 53
-16 171 -21 220 -2 19 -7 71 -10 115 -8 96 -12 121 -20 135 -3 5 -1 10 5 10 6
0 8 5 5 11 -8 12 -11 36 -20 133 -3 39 -7 72 -10 74 -4 5 -2319 9 -2352 4z
m1180 -1199 c3 -5 7 -44 11 -88 3 -44 9 -109 12 -145 3 -36 7 -79 8 -97 1 -18
5 -35 9 -39 3 -4 2 -15 -3 -25 -6 -10 -6 -20 -2 -23 5 -3 9 -22 9 -43 1 -35 3
-62 18 -218 2 -27 7 -79 10 -115 5 -61 18 -211 30 -360 4 -36 8 -85 11 -110 3
-25 7 -67 9 -95 2 -27 6 -81 9 -120 5 -65 9 -106 21 -245 6 -69 15 -170 20
-235 2 -27 6 -72 9 -100 3 -27 8 -81 11 -120 3 -38 7 -92 10 -120 3 -27 7 -74
9 -103 3 -29 8 -56 11 -61 3 -5 1 -12 -5 -16 -6 -4 -7 -11 -4 -17 9 -14 13
-46 15 -121 1 -32 6 -60 11 -63 4 -3 3 -14 -2 -25 -6 -10 -7 -19 -3 -19 5 0 9
-28 11 -62 2 -35 5 -77 7 -94 2 -17 6 -64 10 -105 3 -41 8 -96 10 -124 3 -27
7 -79 10 -115 3 -36 7 -90 10 -120 3 -30 8 -92 11 -136 l7 -82 -317 1 -316 1
5 75 c8 127 15 223 20 291 3 36 7 97 10 135 3 39 7 99 10 135 3 36 7 99 10
140 3 41 7 102 10 135 3 33 8 94 10 135 5 74 10 147 20 265 3 33 7 101 10 150
3 50 8 110 11 135 2 25 7 84 10 131 2 47 7 108 9 135 2 27 7 92 11 144 3 52 7
113 9 135 2 22 6 83 10 135 6 103 14 195 15 195 1 0 4 42 15 225 4 52 8 106 9
120 2 14 7 75 11 135 5 61 9 126 11 145 1 19 3 63 5 98 1 34 6 62 11 62 5 0 4
8 -1 19 -6 10 -8 21 -5 24 3 3 8 41 11 84 6 113 11 178 12 181 2 6 60 1 64 -5z"/>
<path d="M27799 29399 c-8 -4 -14 -4669 -9 -6860 l0 -145 1419 0 c1280 0 1420
1 1423 15 2 9 3 260 3 558 0 367 3 539 10 535 5 -3 4 2 -3 11 -8 9 -12 20 -9
24 3 4 1 17 -3 28 -7 20 -17 20 -724 20 l-716 -1 -2 2909 -3 2909 -688 2
c-379 0 -693 -2 -698 -5z"/>
<path d="M1608 21305 c-2 -2 -36 -5 -76 -6 -41 -2 -76 -7 -78 -11 -3 -5 -29
-8 -59 -8 -30 0 -56 -4 -59 -9 -3 -5 -30 -12 -61 -16 -30 -3 -57 -11 -60 -16
-4 -5 -16 -9 -28 -9 -12 0 -38 -9 -57 -20 -19 -11 -64 -34 -100 -52 -61 -30
-117 -66 -148 -95 -7 -7 -16 -13 -20 -13 -7 0 -46 -34 -127 -109 -22 -21 -56
-60 -74 -87 -19 -27 -37 -51 -40 -54 -10 -9 -42 -64 -63 -110 -11 -25 -24 -47
-27 -50 -19 -15 -75 -154 -87 -218 -1 -8 -9 -19 -18 -25 -14 -11 -19 -25 -32
-102 -3 -16 -11 -36 -16 -43 -6 -7 -8 -15 -5 -19 4 -3 2 -14 -4 -24 -10 -19
-25 -84 -34 -149 -3 -19 -8 -43 -11 -52 -10 -33 -15 -64 -18 -109 -1 -25 -6
-51 -11 -59 -15 -25 -20 -134 -20 -485 0 -314 5 -410 22 -439 4 -5 7 -39 8
-76 3 -83 12 -154 30 -240 8 -36 16 -88 19 -116 3 -27 12 -81 20 -120 8 -38
17 -82 20 -99 6 -45 34 -151 63 -235 33 -99 64 -200 68 -225 6 -40 56 -236 66
-263 6 -15 13 -36 15 -47 2 -11 17 -58 33 -105 16 -47 39 -119 52 -160 12 -41
25 -79 29 -85 5 -5 14 -37 21 -70 7 -33 14 -67 16 -75 2 -8 6 -28 9 -45 4 -27
26 -101 84 -280 10 -33 21 -73 24 -90 4 -16 13 -57 22 -90 8 -33 15 -67 16
-75 0 -8 4 -19 8 -25 4 -5 13 -35 21 -65 7 -30 14 -57 14 -60 1 -3 5 -18 9
-35 4 -16 20 -68 36 -115 15 -47 38 -119 50 -160 12 -41 25 -82 28 -90 7 -19
8 -26 31 -125 18 -81 42 -161 56 -192 8 -17 15 -42 15 -56 0 -13 7 -44 16 -68
13 -39 38 -125 49 -169 2 -8 4 -16 5 -17 2 -2 3 -12 4 -22 0 -11 4 -23 9 -27
4 -4 7 -18 7 -31 0 -13 3 -23 8 -23 4 0 7 -12 8 -27 1 -28 6 -56 17 -83 3 -8
8 -26 12 -40 3 -14 11 -41 16 -60 5 -19 12 -46 15 -59 3 -13 23 -78 44 -144
43 -128 42 -125 65 -236 8 -41 20 -91 27 -110 6 -20 13 -40 14 -46 2 -5 12
-36 23 -67 12 -32 21 -66 21 -76 0 -11 7 -39 16 -63 8 -24 21 -71 29 -104 16
-70 80 -298 95 -335 5 -14 12 -37 15 -52 3 -16 7 -39 10 -53 3 -14 7 -35 9
-47 2 -13 7 -34 10 -48 4 -14 8 -36 10 -50 2 -14 6 -32 9 -40 3 -8 13 -49 22
-90 8 -41 24 -97 34 -125 11 -27 27 -75 35 -105 46 -158 88 -314 106 -390 10
-47 28 -114 40 -150 12 -36 23 -81 26 -100 2 -19 6 -50 9 -67 3 -18 6 -35 6
-38 0 -2 9 -34 19 -70 10 -36 16 -65 14 -65 -3 0 -1 -8 4 -17 16 -30 27 -162
25 -293 -1 -69 -2 -129 -3 -135 -1 -5 -1 -39 -1 -75 1 -36 1 -73 1 -82 0 -10
0 -28 0 -40 0 -13 -1 -36 -3 -53 -1 -16 1 -44 4 -62 4 -18 5 -34 2 -37 -3 -2
-6 -43 -8 -90 -5 -129 -15 -208 -31 -233 -8 -13 -12 -23 -9 -23 4 0 -1 -7 -9
-16 -9 -8 -16 -21 -16 -28 0 -11 -14 -28 -100 -123 -28 -31 -55 -50 -82 -59
-10 -4 -18 -10 -18 -14 0 -4 -16 -15 -35 -26 -19 -10 -35 -21 -35 -25 0 -8
-24 -10 -97 -10 -93 0 -219 57 -293 132 -30 31 -60 63 -66 71 -19 24 -46 67
-44 70 1 2 -3 14 -8 28 -51 128 -52 139 -47 445 2 160 7 308 10 330 3 22 5 45
5 50 -5 205 -4 292 3 303 5 6 6 12 1 12 -13 0 -11 193 1 202 7 5 6 8 -1 8 -12
0 -12 29 0 48 4 6 4 12 -1 12 -10 0 -10 181 1 198 4 7 4 12 -1 12 -4 0 -7 35
-6 77 5 164 4 283 -2 293 -3 5 -2 10 2 10 10 0 9 58 0 67 -3 3 -2 16 3 29 5
13 6 34 1 46 -4 13 -5 35 0 50 4 16 4 28 1 28 -10 0 -8 163 2 178 4 7 4 12 -1
12 -4 0 -8 30 -7 68 1 86 -1 92 -34 83 -15 -4 -45 -5 -67 -4 -22 2 -47 4 -55
4 -36 -1 -617 -2 -640 -2 -14 1 -41 1 -60 1 l-35 0 -1 -217 c0 -120 -4 -238
-9 -263 -4 -25 -10 -279 -12 -565 -3 -286 -6 -594 -8 -685 -2 -91 0 -186 4
-212 5 -29 4 -51 -3 -58 -6 -6 -6 -10 0 -10 5 0 9 -55 10 -132 0 -73 3 -160 7
-193 4 -33 9 -85 12 -115 2 -30 6 -69 9 -85 12 -61 19 -100 19 -112 0 -7 4
-13 9 -13 4 0 8 -11 8 -25 0 -13 8 -48 19 -77 28 -79 44 -137 44 -153 0 -8 4
-15 9 -15 4 0 8 -6 8 -12 0 -7 14 -40 30 -73 16 -33 30 -66 30 -72 0 -7 5 -13
10 -13 6 0 10 -8 10 -19 0 -10 7 -24 15 -31 8 -7 15 -19 15 -27 0 -7 7 -16 15
-19 8 -4 15 -12 15 -19 0 -6 9 -20 19 -30 11 -9 39 -50 62 -91 24 -41 46 -74
51 -74 4 0 8 -5 8 -10 0 -6 15 -26 33 -45 17 -19 37 -40 44 -47 13 -16 89 -85
124 -113 24 -21 109 -64 120 -61 3 0 22 -14 43 -32 20 -17 43 -32 51 -32 8 0
15 -4 15 -8 0 -5 42 -19 93 -32 76 -19 123 -23 269 -25 97 -2 182 -6 189 -11
16 -9 55 -9 93 1 15 4 42 9 60 10 33 2 82 10 161 27 66 14 318 136 337 163 5
7 8 7 8 0 0 -5 6 -3 13 5 7 9 28 27 47 40 69 47 208 197 266 285 61 93 98 165
86 165 -4 0 -2 4 4 8 6 4 21 34 34 67 13 33 28 64 32 69 4 6 8 18 8 27 0 9 13
50 29 90 16 41 32 92 36 114 4 22 9 51 12 65 3 14 6 33 7 43 0 9 3 17 7 17 4
0 12 26 18 58 6 31 13 66 15 77 2 11 7 45 10 75 4 30 9 80 13 110 13 104 10
781 -4 845 -6 34 -13 87 -14 118 -1 32 -7 61 -12 64 -6 3 -5 8 0 12 6 4 5 29
-3 69 -7 34 -15 79 -19 100 -11 69 -16 95 -20 102 -2 3 -7 32 -10 64 -4 32
-16 88 -26 124 -10 36 -17 68 -14 70 3 3 1 10 -4 16 -6 7 -12 23 -15 36 -3 14
-9 40 -15 58 -5 17 -7 32 -4 32 3 0 1 6 -4 13 -6 6 -14 30 -19 52 -4 22 -9 47
-11 55 -2 8 -5 24 -7 35 -2 11 -6 27 -9 35 -3 8 -8 29 -12 45 -3 17 -10 48
-16 70 -5 22 -12 51 -15 65 -9 38 -11 44 -17 60 -3 8 -26 83 -52 165 -26 83
-52 161 -58 175 -6 14 -11 27 -12 30 0 3 -10 34 -22 70 -34 108 -52 173 -64
230 -5 30 -13 66 -15 79 -3 14 -8 29 -12 35 -3 6 -7 16 -8 21 -6 30 -67 245
-78 275 -7 19 -12 45 -11 58 1 12 -1 22 -5 22 -7 0 -25 71 -45 181 -3 14 -12
43 -20 64 -9 20 -18 51 -20 67 -2 16 -8 35 -13 41 -12 16 -43 96 -49 127 -2
14 -8 29 -13 34 -5 5 -5 17 1 28 5 10 6 18 1 18 -4 0 -14 21 -22 48 -7 26 -14
49 -15 52 -1 3 -5 24 -10 48 -4 23 -12 45 -16 48 -5 3 -9 14 -9 25 0 11 -7 36
-17 57 -9 20 -17 39 -18 42 -3 10 -24 116 -29 145 -6 39 -25 116 -33 135 -3 8
-5 18 -5 23 1 4 -3 7 -8 7 -5 0 -9 3 -8 8 3 13 -15 86 -35 142 -18 52 -30 97
-43 165 -3 17 -10 38 -15 48 -5 9 -7 17 -4 17 3 0 1 9 -5 21 -6 11 -13 28 -15
37 -11 55 -58 224 -73 262 -9 25 -17 47 -18 50 0 3 -3 12 -7 20 -3 8 -8 26
-10 40 -3 14 -8 36 -11 50 -3 14 -15 68 -27 120 -12 52 -28 115 -36 140 -8 25
-17 56 -20 70 -8 41 -12 54 -34 108 -5 13 -12 40 -15 60 -3 21 -14 62 -24 92
-9 30 -23 82 -29 115 -6 33 -27 109 -46 170 -19 60 -35 120 -35 133 0 13 -4
31 -9 40 -5 9 -11 31 -14 47 -13 75 -19 101 -27 120 -5 11 -15 47 -24 80 -32
129 -47 181 -56 200 -9 17 -97 355 -114 435 -3 14 -10 43 -15 65 -10 41 -21
95 -26 130 -6 38 -16 90 -30 165 -9 41 -15 86 -15 100 0 14 -1 62 -2 108 -2
45 1 82 5 82 4 0 4 8 0 18 -11 21 -10 103 0 120 5 6 5 12 0 12 -4 0 -8 38 -8
85 0 47 4 85 8 85 4 0 4 8 -1 18 -8 18 -7 239 2 325 7 72 92 224 165 298 70
69 191 134 248 131 148 -6 276 -78 375 -212 46 -61 49 -68 58 -104 5 -17 15
-56 24 -88 8 -31 16 -73 18 -93 1 -20 5 -38 9 -41 3 -2 3 -23 -2 -47 -4 -23
-8 -173 -10 -332 -1 -160 -6 -298 -10 -307 -5 -9 -5 -19 0 -22 4 -3 5 -25 0
-48 -10 -55 -9 -957 2 -963 4 -3 4 -18 0 -33 -4 -15 -5 -38 -1 -52 4 -14 3
-37 -1 -52 -4 -16 -4 -28 0 -28 3 0 8 -98 10 -217 1 -120 6 -220 11 -223 4 -3
113 -3 242 -1 278 5 405 5 516 0 137 -6 122 -76 122 568 0 307 0 560 0 563 18
119 14 947 -6 1270 -9 155 -10 165 -16 175 -3 6 -11 35 -18 65 -6 30 -17 75
-22 100 -28 124 -114 337 -140 348 -5 2 -6 8 -3 13 3 5 -2 21 -13 36 -10 16
-44 66 -75 113 -30 47 -65 95 -76 107 -12 12 -21 27 -21 33 0 5 -4 10 -8 10
-4 0 -16 15 -27 33 -10 17 -63 74 -117 126 -74 71 -112 99 -149 112 -27 10
-66 31 -87 47 -66 51 -189 87 -332 96 -58 4 -134 9 -170 12 -36 2 -70 6 -77 8
-6 3 -13 3 -15 1z"/>
<path d="M4897 21304 c-1 -1 -24 -3 -52 -5 -27 -1 -54 -6 -60 -10 -10 -7 -168
-59 -193 -63 -7 -1 -18 -8 -24 -14 -7 -7 -17 -12 -24 -12 -14 0 -164 -82 -221
-121 -23 -16 -44 -29 -48 -29 -11 0 -109 -77 -136 -106 -14 -16 -62 -83 -105
-149 -43 -66 -88 -129 -100 -140 -24 -23 -68 -85 -60 -85 3 0 -5 -11 -18 -25
-23 -24 -59 -101 -72 -150 -1 -5 -9 -31 -18 -57 -9 -26 -18 -66 -21 -89 -6
-61 -16 -102 -29 -118 -6 -8 -10 -17 -9 -20 2 -3 1 -19 -2 -36 -3 -16 -8 -55
-10 -85 -5 -77 -17 -184 -20 -188 -2 -2 1 -17 5 -33 5 -18 5 -29 -1 -29 -6 0
-8 -4 -5 -8 13 -22 6 -152 -15 -262 -12 -68 -15 -607 -5 -890 3 -80 8 -228 11
-330 3 -102 8 -210 11 -240 3 -30 5 -62 5 -70 -1 -8 -1 -37 -1 -65 1 -27 0
-59 -1 -70 -2 -27 -1 -559 1 -605 0 -8 0 -24 0 -35 -1 -11 -1 -27 -1 -35 1 -8
1 -28 0 -45 0 -16 0 -37 1 -45 0 -18 0 -31 -3 -133 -1 -42 1 -77 5 -77 4 0 4
-12 0 -27 -6 -22 -7 -290 -3 -438 1 -11 1 -43 0 -72 0 -29 2 -57 6 -63 3 -5 1
-10 -5 -10 -6 0 -8 -4 -5 -10 5 -8 6 -35 4 -130 0 -8 3 -62 8 -120 9 -118 8
-724 -2 -840 -10 -122 -11 -210 -2 -210 5 0 5 -5 2 -10 -6 -10 -7 -47 -6 -180
1 -77 1 -88 1 -102 0 -7 0 -50 -1 -96 -1 -45 0 -85 3 -88 3 -3 3 -17 -1 -32
-4 -15 -4 -44 -1 -64 4 -21 3 -38 -2 -38 -5 0 -5 -7 0 -17 11 -22 13 -439 2
-486 -4 -20 -3 -42 3 -52 5 -10 5 -15 0 -12 -5 3 -9 -49 -9 -126 0 -254 -15
-1003 -21 -1057 -3 -30 -6 -114 -7 -187 0 -76 -5 -129 -10 -126 -5 4 -5 0 0
-8 5 -8 10 -120 10 -249 2 -215 6 -304 19 -400 3 -19 7 -52 9 -73 2 -20 6 -40
9 -43 3 -3 1 -18 -3 -34 -4 -16 -7 -30 -5 -32 4 -4 14 -114 20 -232 3 -64 13
-146 20 -176 1 -3 5 -27 10 -55 4 -27 10 -54 14 -60 3 -5 7 -21 9 -35 1 -14 5
-32 9 -40 3 -8 7 -17 8 -20 21 -79 43 -130 83 -195 26 -44 61 -107 77 -140 16
-33 34 -65 40 -72 5 -6 30 -37 55 -69 25 -31 78 -91 118 -132 39 -41 72 -81
72 -88 0 -8 4 -14 9 -14 6 0 24 -13 41 -29 18 -16 57 -42 88 -57 32 -16 64
-36 72 -46 8 -9 39 -30 68 -45 30 -15 65 -34 79 -42 34 -18 126 -41 188 -47
46 -4 148 -6 163 -2 4 1 27 -2 52 -7 45 -8 205 -9 219 -1 4 3 34 8 66 11 75 9
90 12 130 25 18 6 37 10 41 8 11 -3 137 42 144 52 7 10 147 100 155 100 4 0
25 14 46 31 21 17 39 29 39 26 0 -3 18 12 40 32 22 20 40 41 40 46 0 6 23 35
51 65 86 94 113 128 151 198 57 104 65 122 93 202 14 41 36 100 50 130 42 97
91 292 78 312 -2 5 -1 8 4 8 4 0 8 30 7 68 0 37 2 71 4 76 3 5 7 50 8 100 2
50 7 116 11 146 3 30 7 100 8 155 0 55 4 106 8 113 5 6 4 12 -1 12 -10 0 -7
113 3 130 3 5 1 10 -5 10 -6 0 -9 4 -6 9 13 20 18 249 17 806 0 330 -3 614 -6
630 -8 42 -9 264 -1 300 3 17 6 203 5 415 -1 555 -2 600 -11 600 -5 0 -4 8 1
19 6 10 8 20 6 23 -8 8 -9 113 -2 126 5 6 4 12 -1 12 -10 0 -9 100 1 117 4 6
4 14 -1 17 -10 6 -9 106 0 121 4 6 4 16 0 22 -4 6 -6 53 -4 105 1 51 2 99 2
106 0 6 0 29 0 50 -1 20 2 109 5 197 8 228 8 1429 0 1495 -10 72 -12 301 -4
306 4 2 4 19 0 36 -6 31 -6 66 -1 78 8 16 9 171 10 865 0 688 -1 820 -10 820
-7 0 -5 232 2 242 5 6 5 14 -1 17 -5 3 -7 25 -5 49 3 23 5 48 5 55 -1 12 -1
21 0 107 0 28 -1 96 -4 152 -2 71 0 100 7 96 6 -4 4 1 -4 12 -8 10 -13 19 -11
19 3 1 1 21 -15 146 -10 74 -12 84 -24 115 -6 17 -11 31 -12 32 -1 16 -12 43
-17 43 -4 0 -8 6 -8 13 -1 6 -15 50 -32 97 -18 47 -34 95 -37 107 -2 12 -9 34
-14 48 -5 14 -9 29 -7 33 3 10 -99 184 -123 210 -11 12 -20 25 -20 30 0 5 -13
24 -30 43 -16 19 -47 61 -70 95 -45 69 -100 126 -145 151 -17 9 -52 29 -80 45
-27 15 -63 34 -80 42 -16 8 -34 18 -38 23 -5 4 -12 8 -15 8 -4 1 -27 12 -52
25 -25 13 -47 24 -50 25 -3 0 -27 8 -55 17 -87 29 -258 66 -345 75 -101 10
-115 10 -127 0 -8 -5 -13 -6 -13 0 0 7 -36 13 -43 7z m223 -978 c82 -44 132
-74 161 -98 18 -16 36 -28 39 -28 6 0 65 -88 65 -99 1 -3 4 -15 8 -26 3 -11 8
-33 11 -48 3 -16 9 -43 15 -60 10 -34 20 -95 27 -167 4 -41 8 -70 20 -140 11
-62 15 -96 15 -110 -2 -66 -1 -105 4 -120 3 -10 1 -21 -5 -25 -6 -3 -8 -11 -4
-16 3 -6 5 -40 4 -77 -1 -37 -1 -78 0 -92 1 -14 2 -34 1 -45 -1 -23 0 -57 2
-138 1 -31 -1 -57 -5 -57 -4 0 -3 -12 0 -27 4 -16 5 -48 2 -73 -3 -25 -2 -58
2 -74 4 -16 3 -36 -2 -46 -5 -10 -7 -20 -4 -23 4 -3 5 -34 4 -69 -1 -35 -1
-74 0 -88 1 -14 2 -34 1 -45 -1 -23 0 -57 2 -138 1 -31 -1 -57 -5 -57 -4 0 -3
-12 0 -27 4 -16 5 -48 2 -73 -3 -25 -2 -58 2 -74 4 -16 4 -35 -1 -43 -4 -8 -5
-34 -1 -59 4 -24 5 -46 2 -48 -5 -6 -15 -138 -13 -181 0 -16 3 -61 5 -100 6
-91 6 -101 6 -160 0 -27 3 -57 6 -67 2 -9 0 -19 -6 -23 -6 -3 -8 -11 -4 -16 7
-12 6 -111 -1 -189 -15 -151 -22 -612 -11 -745 6 -77 14 -281 16 -395 0 -19
-2 -161 -6 -315 -14 -563 -7 -1607 11 -1635 3 -6 2 -10 -4 -10 -6 0 -7 -11 -3
-27 4 -16 5 -48 2 -73 -3 -25 -2 -58 2 -74 4 -16 4 -36 -1 -45 -4 -9 -5 -29
-1 -46 3 -16 3 -51 0 -76 -3 -25 -3 -59 2 -74 4 -16 4 -32 0 -35 -11 -8 -13
-67 -14 -405 -1 -170 4 -346 9 -390 6 -44 7 -84 3 -88 -4 -4 -4 -25 -1 -45 3
-20 4 -57 1 -82 -3 -25 -2 -57 2 -72 4 -17 3 -28 -3 -28 -6 0 -7 -5 -4 -11 4
-5 6 -42 5 -82 -1 -40 -1 -79 -1 -87 2 -75 0 -139 -5 -160 -3 -14 -7 -203 -9
-420 -2 -217 -6 -413 -9 -435 -3 -22 -8 -69 -10 -105 -2 -36 -7 -72 -10 -80
-2 -8 -13 -64 -22 -123 -9 -60 -22 -114 -28 -121 -6 -6 -12 -18 -14 -26 -2 -8
-10 -25 -17 -37 -21 -32 -190 -141 -230 -149 -19 -3 -35 -10 -35 -15 0 -5 -3
-8 -7 -8 -5 1 -12 0 -18 -1 -35 -7 -121 3 -187 22 -69 21 -80 28 -112 70 -20
26 -42 51 -50 55 -20 12 -95 150 -107 197 -19 73 -37 228 -41 338 -2 60 -5
108 -8 108 -3 0 -5 54 -5 120 0 66 3 120 7 120 4 0 5 6 2 14 -9 24 -10 117 -2
122 5 3 6 10 2 15 -9 16 -10 200 -1 206 4 3 3 11 -3 18 -13 16 -12 1083 2
1091 4 3 5 11 1 17 -10 16 -10 187 0 187 5 0 5 5 1 12 -10 15 -11 238 -2 238
4 0 5 6 2 14 -9 24 -10 117 -2 122 5 3 5 10 2 16 -8 12 -7 57 8 573 17 588 13
1405 -7 1690 -7 94 -8 134 -2 173 2 17 2 32 -2 32 -8 0 -10 72 -10 360 -1 242
1 275 12 286 3 4 4 11 0 17 -9 14 -10 157 -1 157 4 0 3 12 0 28 -6 23 -7 118
-2 147 5 26 2 124 -4 134 -4 6 -3 11 1 11 10 0 8 154 -2 170 -3 5 -2 10 3 10
5 0 6 17 2 38 -3 20 -3 54 1 74 3 21 4 40 1 43 -7 6 -5 233 3 295 2 25 7 100
9 167 3 68 7 127 10 132 4 5 2 12 -3 15 -5 3 -6 20 -2 37 4 18 3 60 0 93 -4
34 -6 297 -4 586 3 505 13 793 27 816 4 6 10 25 13 44 3 18 12 45 20 61 8 15
15 35 15 44 0 8 4 15 9 15 5 0 14 14 21 30 7 17 17 30 22 30 5 0 7 4 4 9 -4 5
-3 11 2 13 4 1 21 20 37 42 43 57 92 84 166 91 35 4 66 9 68 11 10 10 118 3
141 -10z"/>
<path d="M13906 21222 c-4 -4 -87 -8 -184 -9 -97 -1 -213 -4 -257 -7 -44 -2
-204 -5 -355 -5 l-276 -1 -1 -152 c-1 -84 -4 -207 -6 -273 -7 -168 -10 -268
-7 -280 1 -5 2 -14 1 -20 -4 -20 -1 -211 5 -305 6 -108 6 -96 5 -175 0 -72 6
-240 9 -240 12 0 24 -220 23 -425 -1 -107 -1 -771 -1 -1475 0 -704 0 -1629 1
-2055 0 -872 -8 -1623 -18 -1660 -4 -14 -9 -92 -11 -175 -2 -82 -5 -220 -8
-305 -7 -261 -8 -355 -6 -365 1 -5 2 -14 1 -20 -3 -14 -3 -208 -1 -220 1 -6 2
-14 1 -20 -3 -14 -3 -208 -1 -220 1 -6 2 -14 1 -20 -3 -14 -3 -208 -1 -220 1
-6 2 -14 1 -20 -3 -14 -3 -208 -1 -220 1 -6 2 -14 1 -20 -5 -26 -2 -215 3
-224 4 -5 2 -12 -4 -16 -6 -4 -8 -9 -6 -13 8 -15 19 -207 22 -422 3 -205 10
-385 14 -385 9 0 16 -852 9 -1185 -2 -80 0 -156 3 -170 4 -14 7 -34 7 -45 1
-20 6 -20 319 -19 254 1 528 10 539 18 2 1 10 790 17 1569 2 235 0 430 -5 432
-4 3 -8 242 -9 533 -1 290 -4 572 -6 627 -7 132 -7 484 0 665 8 200 18 608 21
826 2 99 6 216 10 260 7 85 10 230 4 253 -7 24 43 29 288 30 229 0 271 3 293
16 6 3 10 1 10 -5 0 -6 5 -8 11 -5 5 4 20 8 32 10 12 1 42 6 67 10 25 4 52 8
60 9 30 4 226 69 268 90 23 11 61 38 85 60 23 21 58 50 77 65 81 61 190 168
190 187 0 7 4 14 8 16 9 4 72 93 72 103 0 4 7 13 15 22 8 8 13 19 10 24 -4 5
-2 9 3 9 6 0 52 88 57 110 0 3 6 14 12 25 6 11 12 22 12 25 11 40 14 50 20 50
4 0 8 6 8 13 0 20 37 107 45 107 4 0 5 7 2 15 -4 8 -1 15 5 15 6 0 11 8 11 18
0 10 3 22 8 26 4 4 7 11 8 14 0 4 3 14 7 22 15 37 56 285 62 375 4 55 7 206 8
335 1 129 5 240 8 245 5 8 5 648 1 725 -1 8 -1 152 -1 320 -1 168 -2 457 -3
642 -2 186 1 338 5 338 5 0 6 4 2 9 -5 9 -6 62 -4 206 0 17 0 35 -1 40 0 6 -2
125 -4 265 -4 235 -13 347 -35 425 -5 17 -14 57 -21 90 -27 131 -51 201 -102
293 -29 53 -52 99 -51 104 2 4 -1 8 -5 8 -5 0 -17 19 -28 43 -10 23 -26 49
-36 58 -10 9 -18 20 -18 25 0 5 -16 27 -35 49 -19 22 -37 48 -41 58 -3 9 -10
17 -15 17 -5 0 -9 7 -9 15 0 8 -14 30 -31 48 -17 17 -58 63 -92 100 -53 60
-77 77 -182 130 -66 34 -128 63 -137 65 -10 2 -18 7 -18 12 0 10 -90 34 -172
44 -21 3 -45 9 -55 13 -10 4 -39 8 -65 8 -27 0 -48 2 -48 5 0 3 -30 5 -67 4
-39 0 -71 4 -75 10 -6 8 -8 8 -8 -1 0 -8 -33 -11 -119 -8 -65 1 -123 5 -129 9
-5 3 -12 2 -16 -2z m124 -962 c52 -3 214 -1 227 1 4 1 21 -3 36 -9 16 -7 33
-10 38 -6 5 3 9 0 9 -5 0 -6 8 -11 18 -11 25 0 132 -77 132 -95 0 -3 18 -24
40 -47 60 -63 72 -96 86 -238 6 -59 13 -523 12 -730 -5 -797 -1 -1050 16
-1050 5 0 3 -6 -3 -13 -6 -8 -8 -16 -5 -19 7 -7 11 -108 4 -108 -3 0 -4 -33
-2 -72 1 -40 3 -77 3 -83 0 -5 0 -46 0 -90 0 -44 0 -90 0 -102 0 -13 -1 -50
-2 -83 -1 -34 1 -64 5 -67 3 -3 1 -12 -5 -20 -6 -7 -7 -13 -2 -13 5 0 7 -42 6
-92 -2 -51 -3 -104 -2 -118 0 -14 0 -40 0 -57 -2 -57 -2 -67 -2 -133 0 -36 0
-83 0 -105 -1 -22 0 -44 1 -50 1 -5 2 -13 1 -17 -4 -28 -4 -138 0 -142 3 -3 3
-25 0 -48 -4 -24 -4 -65 0 -91 3 -26 2 -50 -3 -53 -4 -3 -8 -18 -8 -33 0 -39
-35 -168 -59 -218 -27 -54 -155 -182 -209 -208 -23 -11 -42 -23 -42 -26 0 -4
-128 -7 -285 -7 -277 0 -286 0 -296 20 -8 15 -9 148 -4 457 7 433 7 822 3
2226 -3 719 4 1008 22 1030 6 7 8 14 5 17 -13 12 -24 377 -16 497 1 9 9 12 25
9 14 -3 29 -2 34 1 8 5 120 5 222 1z"/>
<path d="M20196 21223 c-9 -9 -325 -20 -421 -15 -22 1 -77 -1 -122 -4 l-83 -7
-1 -176 c-1 -97 -3 -207 -5 -246 -9 -178 -2 -408 12 -424 2 -2 -1 -10 -7 -17
-14 -18 -10 -343 7 -454 23 -159 28 -492 19 -1277 -3 -238 -1 -433 4 -433 4 0
7 -795 5 -1767 -1 -973 -2 -1784 -2 -1803 0 -19 0 -44 -1 -55 0 -11 -3 -96 -6
-190 -3 -93 -10 -201 -15 -240 -5 -38 -11 -157 -12 -262 -2 -106 -7 -193 -11
-193 -5 0 -5 -5 -1 -11 8 -13 11 -109 4 -109 -8 0 -4 -1305 3 -1317 4 -7 4
-14 -1 -17 -5 -3 -5 -29 -2 -58 4 -29 8 -163 9 -297 1 -135 5 -250 9 -255 3
-6 10 -157 14 -336 4 -179 7 -331 8 -337 3 -51 5 -823 2 -903 -4 -101 3 -200
13 -201 6 -1 15 0 20 1 12 2 96 2 110 0 6 -1 30 -1 55 0 67 4 127 3 203 -1 37
-2 67 -2 67 1 0 5 85 4 105 -1 6 -2 46 1 90 6 44 5 312 9 595 9 l515 1 0 477
c0 262 -2 478 -5 481 -13 12 -124 16 -482 16 l-387 1 -7 23 c-4 12 -8 56 -9
98 -1 41 -5 81 -9 87 -4 7 -4 12 1 12 4 0 8 41 8 90 0 50 -4 90 -8 90 -5 0 -5
6 0 13 11 18 10 101 -2 109 -7 5 -6 8 0 8 7 0 10 21 8 53 -2 28 -3 57 -3 62 0
6 1 34 3 63 2 28 -1 52 -5 52 -5 0 -5 8 0 18 7 15 9 71 2 97 -1 6 -1 12 0 15
6 15 4 110 -3 110 -4 0 -3 8 2 18 6 11 6 24 0 34 -12 22 -14 740 -2 765 7 15
8 54 2 138 0 11 10 133 16 175 2 14 3 494 4 1067 l1 1041 118 2 c155 2 186 2
470 -1 134 -1 245 1 248 4 11 11 25 170 25 282 0 22 0 81 0 130 1 50 0 104 -1
120 -1 17 -2 35 -2 40 0 6 1 47 2 92 1 45 -1 87 -5 92 -3 6 -2 11 3 11 5 0 6
17 2 40 -4 22 -5 42 -2 44 2 3 5 26 7 51 l2 45 -36 0 c-95 0 -292 11 -338 19
-29 4 -57 5 -63 1 -6 -4 -29 -4 -51 0 -21 4 -39 4 -39 1 0 -7 -76 -5 -96 3 -7
3 -15 2 -18 -2 -2 -4 -47 -6 -100 -4 l-96 3 -1 202 c-1 111 -3 234 -5 272 -7
105 -12 337 -18 775 -3 217 -8 562 -12 765 -3 204 -4 444 -3 535 5 255 5 1213
0 1328 -3 56 -9 102 -14 102 -6 0 -6 5 0 13 5 6 9 58 8 115 -1 57 1 105 5 107
5 3 63 10 165 20 137 14 264 19 467 19 l238 1 8 25 c5 14 7 39 6 55 -5 69 -15
241 -15 250 0 6 0 35 0 65 0 30 0 62 0 70 0 8 0 51 0 95 0 44 0 87 0 95 0 8 0
38 0 65 0 28 0 57 0 65 0 8 0 40 0 70 1 91 6 85 -83 88 -163 6 -1074 10 -1080
5z"/>
<path d="M26015 21220 c-6 -9 -234 -16 -365 -11 -19 1 -69 -2 -110 -5 l-75 -6
-3 -196 c-5 -376 -6 -527 -1 -595 2 -38 1 -71 -3 -73 -7 -4 -5 -91 6 -374 4
-100 8 -140 17 -160 1 -3 3 -57 5 -120 2 -63 6 -171 9 -240 7 -158 7 -156 1
-330 -8 -208 -9 -842 -1 -1065 4 -104 7 -196 6 -202 0 -7 0 -114 0 -238 0
-124 0 -232 0 -240 0 -8 0 -116 0 -240 0 -124 0 -232 0 -240 0 -8 0 -116 0
-240 0 -124 0 -232 0 -240 0 -8 0 -116 0 -240 0 -124 0 -232 0 -240 0 -8 0
-116 0 -240 0 -124 0 -232 0 -240 0 -8 0 -116 0 -240 0 -124 0 -231 1 -237 0
-7 -3 -119 -7 -248 -4 -129 -8 -314 -10 -411 -1 -97 -6 -183 -11 -190 -12 -21
-16 -291 -17 -1194 -1 -812 6 -1328 18 -1390 3 -16 7 -167 10 -335 2 -168 7
-359 10 -425 3 -66 6 -124 6 -130 1 -106 0 -468 -2 -490 -7 -77 -1 -317 8
-326 9 -9 149 -17 157 -8 3 2 51 3 108 2 57 -2 109 -3 116 -3 6 0 20 0 30 0 9
0 28 0 42 1 14 1 36 1 50 1 113 -2 141 -1 185 6 28 4 279 7 558 7 280 0 510 2
512 5 4 6 7 489 6 793 -1 92 -4 166 -8 166 -5 -1 -12 0 -18 1 -26 5 -77 6
-452 8 l-402 2 -7 35 c-3 20 -8 259 -9 533 -2 273 -6 513 -9 532 -7 44 -9 171
-2 177 3 3 1 16 -4 29 -6 14 -6 26 1 29 5 4 7 10 4 15 -5 8 -9 212 -5 235 1 6
2 14 0 20 -3 18 1 141 6 180 14 102 17 314 21 1346 l4 1106 122 2 c181 3 194
3 417 1 291 -2 306 -2 309 13 2 6 5 206 7 442 3 237 9 443 14 458 12 36 11 36
-130 41 -327 12 -426 17 -437 21 -7 2 -15 0 -17 -4 -3 -5 -18 -7 -33 -4 -39 5
-184 4 -193 -2 -22 -13 -28 34 -28 220 0 110 -3 252 -6 315 -3 63 -8 207 -11
320 -3 113 -7 224 -8 248 -1 23 1 42 4 42 4 0 2 21 -3 48 -5 26 -10 651 -13
1407 -2 748 -4 1418 -5 1488 -1 70 -1 129 1 131 4 4 106 16 174 22 22 2 67 6
100 9 33 3 179 7 324 10 310 5 295 -1 285 110 -3 39 -8 239 -11 445 -3 206 -9
377 -14 380 -4 3 -47 5 -94 5 -47 0 -85 4 -85 10 0 5 -5 4 -11 -2 -7 -7 -21
-8 -40 -3 -33 10 -988 10 -994 0z"/>
<path d="M29761 21201 l-23 -6 -3 -1235 c-1 -679 -5 -1359 -9 -1510 -3 -151
-6 -313 -5 -360 0 -128 -2 -173 -7 -181 -2 -4 0 -10 6 -14 6 -4 7 -11 4 -17
-4 -6 -6 -52 -5 -102 2 -120 1 -178 -5 -187 -2 -4 0 -10 6 -14 6 -4 7 -11 4
-17 -4 -6 -6 -52 -5 -102 2 -120 1 -178 -5 -187 -2 -4 0 -10 6 -14 6 -4 7 -11
4 -17 -6 -9 -8 -206 -3 -234 1 -5 0 -13 -1 -19 -1 -8 -1 -69 1 -110 1 -11 0
-117 -1 -150 0 -11 1 -31 2 -45 0 -14 1 -59 0 -100 -1 -137 -2 -335 -1 -350 0
-8 0 -51 -1 -95 -1 -44 -1 -84 0 -90 1 -5 1 -14 0 -20 -1 -5 -1 -30 -1 -55 2
-72 0 -134 -4 -139 -2 -2 0 -11 5 -21 5 -10 6 -20 3 -24 -3 -3 -5 -27 -4 -54
1 -26 2 -51 2 -57 0 -5 0 -86 -1 -180 -1 -93 2 -208 5 -255 11 -123 12 -366 3
-510 -4 -69 -8 -190 -8 -270 0 -80 -1 -172 -1 -205 -1 -33 -1 -64 -1 -70 16
-258 21 -783 9 -930 -7 -77 -9 -172 -6 -225 1 -12 0 -115 -1 -182 0 -50 1
-112 6 -306 2 -117 2 -217 -2 -223 -3 -6 -6 -63 -5 -127 0 -64 0 -160 0 -212
-1 -52 -1 -124 0 -160 2 -123 0 -194 -5 -202 -3 -4 0 -8 5 -8 7 0 9 -16 5 -42
-3 -24 -5 -61 -5 -83 2 -69 0 -129 -4 -134 -2 -2 0 -11 5 -21 5 -10 6 -20 3
-24 -4 -4 -6 -28 -5 -54 2 -53 -17 -142 -30 -142 -5 0 -7 -4 -4 -8 10 -16 -87
-157 -150 -219 -69 -68 -145 -112 -202 -118 -20 -2 -37 -4 -37 -5 0 -7 -47 -5
-51 2 -3 4 -15 8 -27 8 -47 1 -181 57 -214 91 -18 18 -33 36 -33 40 0 4 -6 14
-13 21 -27 27 -56 99 -84 204 l-29 109 3 1580 c2 869 3 1643 2 1720 -1 77 -1
262 0 410 4 663 4 1066 0 1406 -3 277 0 370 9 381 6 8 9 17 7 20 -15 15 -18
87 -19 493 -1 242 -5 445 -9 452 -4 6 -4 14 0 16 5 3 7 531 6 1174 -3 1355 -4
1234 3 1245 3 4 2 8 -3 8 -4 0 -8 145 -8 323 0 177 -2 354 -5 392 -3 39 0 90
5 115 12 48 13 205 2 216 -3 3 -201 7 -439 9 l-433 3 -2 -457 c-1 -251 -3
-488 -5 -528 -2 -39 0 -69 4 -66 5 2 4 -7 -1 -20 -6 -14 -7 -28 -3 -31 8 -9
11 -764 2 -796 -4 -14 -3 -40 1 -57 4 -18 4 -33 0 -33 -7 0 -9 -224 -9 -1040
0 -333 0 -650 0 -705 -2 -1481 -1 -3809 1 -3897 1 -65 6 -118 11 -118 5 0 4
-6 -1 -12 -5 -7 -8 -92 -7 -188 2 -96 3 -197 3 -225 1 -27 1 -59 2 -70 6 -125
3 -1698 -3 -1701 -5 -3 -6 -9 -3 -13 2 -5 6 -38 9 -74 2 -36 7 -71 11 -76 3
-6 8 -34 10 -64 5 -68 52 -219 107 -344 10 -23 18 -47 18 -52 0 -6 5 -11 11
-11 5 0 7 -4 4 -10 -10 -17 132 -289 157 -298 4 -2 8 -8 8 -13 0 -5 12 -24 28
-41 40 -47 95 -108 110 -121 7 -7 26 -25 42 -40 17 -16 30 -26 30 -23 0 3 12
-6 28 -21 35 -33 108 -83 120 -83 6 0 12 -4 14 -9 4 -11 165 -88 204 -97 16
-4 35 -11 42 -17 7 -5 49 -14 95 -18 91 -9 107 -12 122 -20 6 -3 28 -7 49 -8
21 -1 46 -5 55 -9 20 -10 148 -8 187 3 33 9 30 9 109 25 33 7 65 13 70 15 233
51 538 247 670 430 16 22 32 42 35 45 18 15 76 123 115 216 25 58 45 107 45
109 0 2 15 36 34 77 33 70 71 178 81 227 2 12 7 30 9 39 24 74 25 155 31 1517
3 704 7 1296 10 1315 6 49 6 3228 0 3265 -3 17 -4 120 -3 230 3 289 2 1153 -2
1410 -2 121 -2 551 -1 955 1 404 0 914 -4 1132 l-6 397 -406 -5 c-224 -2 -409
0 -412 4 -3 5 -17 6 -30 3z"/>
<path d="M7059 21181 c0 -9 -2 -529 -5 -1156 -5 -1204 -5 -1213 -17 -1232 -4
-6 -3 -14 3 -18 6 -4 8 -11 4 -16 -8 -14 -9 -203 -1 -216 4 -6 4 -14 -1 -17
-9 -5 -6 -81 3 -96 3 -6 3 -10 -2 -10 -10 0 -9 -102 0 -118 4 -6 4 -13 -1 -16
-9 -5 -6 -81 3 -96 3 -6 3 -10 -2 -10 -10 0 -9 -102 0 -118 4 -6 4 -13 -1 -16
-9 -5 -6 -81 3 -96 3 -6 3 -10 -2 -10 -9 0 -9 -102 0 -117 4 -6 4 -13 0 -16
-8 -9 -7 -113 2 -126 3 -6 2 -11 -2 -11 -5 0 -7 -15 -5 -32 6 -57 10 -303 4
-312 -7 -13 -5 -102 2 -115 4 -6 4 -11 -1 -11 -10 0 -9 -132 0 -147 4 -7 4
-14 0 -16 -10 -6 -9 -129 0 -145 4 -6 4 -13 0 -15 -10 -6 -9 -129 0 -145 4 -6
4 -13 0 -15 -9 -6 -9 -129 0 -144 4 -6 4 -13 0 -17 -9 -8 -8 -320 1 -334 3 -6
3 -13 -2 -16 -9 -5 -6 -81 3 -96 3 -6 3 -10 -2 -10 -10 0 -9 -102 0 -118 4 -6
4 -13 -1 -16 -9 -5 -6 -81 3 -96 3 -6 3 -10 -2 -10 -10 0 -9 -102 0 -118 4 -6
4 -13 -1 -16 -9 -5 -6 -81 3 -96 3 -6 3 -10 -2 -10 -10 0 -9 -102 0 -118 4 -6
4 -13 -1 -16 -9 -5 -6 -81 3 -96 3 -6 3 -10 -2 -10 -9 0 -9 -102 0 -117 4 -6
4 -13 0 -16 -3 -4 -6 -28 -6 -55 0 -27 3 -54 6 -59 4 -6 4 -13 0 -17 -9 -9 -9
-126 0 -126 4 0 4 -8 -1 -17 -12 -24 -13 -671 -1 -679 5 -3 7 -10 3 -15 -9
-15 -10 -99 -2 -99 4 0 4 -10 0 -22 -9 -26 -8 -68 1 -92 4 -9 3 -16 -1 -16 -4
0 -7 -24 -7 -54 0 -30 4 -52 9 -48 5 3 6 -1 1 -8 -9 -15 -10 -103 -1 -118 3
-6 3 -13 -2 -16 -8 -5 -7 -69 2 -93 3 -7 1 -13 -5 -13 -6 0 -7 -5 -3 -12 13
-20 15 -191 20 -1393 4 -1126 6 -1260 24 -1315 4 -14 13 -45 20 -70 7 -25 16
-54 20 -65 15 -38 40 -105 41 -113 4 -13 29 -77 39 -94 6 -10 10 -22 10 -27 0
-4 10 -30 22 -57 12 -27 21 -52 20 -56 -1 -5 2 -8 8 -8 5 0 10 -5 10 -10 0
-14 100 -174 111 -178 5 -2 9 -10 9 -18 0 -8 5 -14 10 -14 6 0 10 -5 10 -12 0
-11 174 -188 185 -188 3 0 16 -9 28 -21 63 -60 217 -145 345 -191 55 -19 161
-38 211 -38 13 0 29 -4 35 -8 6 -5 29 -10 50 -11 21 -1 46 -5 55 -9 9 -5 50
-7 91 -5 73 2 89 4 120 16 8 3 58 13 110 22 52 10 129 31 170 48 41 17 77 30
79 28 2 -1 7 1 10 6 3 4 46 28 94 53 49 25 96 52 105 60 9 8 42 35 72 60 30
24 62 53 71 62 9 10 21 18 28 18 6 0 11 4 11 9 0 5 18 28 40 52 22 24 43 52
46 62 3 9 10 15 15 12 5 -4 9 -2 9 4 0 6 16 35 35 66 20 30 33 55 30 55 -4 0
0 6 7 14 8 7 26 46 42 87 16 41 43 106 61 144 66 141 120 324 131 445 2 25 6
632 10 1350 7 1722 7 1714 19 1722 7 5 7 8 0 8 -6 0 -9 57 -7 157 5 207 5 408
1 621 -3 108 0 174 6 176 7 3 7 5 0 5 -9 1 -12 75 -5 106 1 6 2 15 1 20 -3 12
-3 318 0 325 1 3 1 8 1 11 -2 14 -2 116 1 429 1 184 0 372 -3 418 -3 46 -1 90
3 98 4 8 4 14 0 14 -4 0 -9 123 -10 273 -4 673 0 1127 10 1127 5 0 5 5 1 12
-12 18 -11 308 1 308 7 0 6 3 0 8 -11 7 -20 273 -18 522 1 74 2 276 2 448 2
235 5 312 14 312 8 0 8 3 2 8 -12 8 -14 302 -2 302 5 0 5 5 1 12 -10 16 -11
308 -1 308 5 0 5 5 1 11 -4 7 -9 46 -11 88 -3 60 -12 666 -13 852 l0 37 -432
-2 c-238 0 -435 -4 -438 -8 -3 -4 -5 -139 -4 -300 1 -161 2 -392 3 -513 1
-121 -1 -537 -5 -925 -5 -620 -10 -3864 -7 -4470 1 -124 1 -387 1 -585 -1
-198 -1 -529 0 -735 0 -206 0 -526 -1 -710 -1 -184 -1 -362 0 -395 1 -33 0
-352 -3 -710 -5 -717 -3 -688 -71 -812 -37 -67 -149 -189 -200 -219 -18 -10
-33 -22 -33 -27 0 -4 -3 -6 -7 -4 -5 3 -19 0 -33 -6 -71 -29 -134 -23 -276 26
-52 18 -82 35 -108 63 -19 22 -36 45 -36 52 0 6 -4 12 -8 12 -16 0 -65 127
-87 225 -3 11 -8 31 -12 45 -5 20 -9 2299 -5 3270 0 102 1 309 1 460 1 151 2
564 3 917 2 354 0 643 -4 643 -4 0 -5 51 -1 113 3 61 5 130 4 152 -1 22 -3
785 -5 1695 -4 1341 -11 2349 -17 2415 -1 6 2 44 6 85 9 88 10 229 2 237 -3 3
-200 6 -436 8 -393 2 -431 1 -432 -14z"/>
<path d="M10384 21174 c-4 -15 -4 -239 0 -498 9 -563 9 -576 17 -576 4 0 4
-15 0 -32 -4 -18 -4 -46 0 -61 4 -15 4 -40 -1 -56 -4 -16 -4 -34 0 -42 5 -7 6
-17 3 -22 -8 -13 -6 -284 2 -296 3 -6 1 -11 -5 -11 -6 0 -9 -4 -5 -9 3 -5 5
-31 5 -58 0 -45 0 -59 0 -100 1 -17 1 -203 1 -230 -1 -7 -1 -24 -1 -38 0 -14
0 -33 0 -42 0 -10 0 -29 1 -43 1 -14 1 -32 1 -40 0 -8 0 -26 -1 -40 -1 -14 -1
-32 -1 -40 1 -8 -2 -184 -7 -390 -14 -649 -6 -1681 13 -1711 3 -5 2 -9 -3 -9
-8 0 -7 -95 1 -117 3 -7 1 -13 -5 -13 -6 0 -8 -4 -4 -9 3 -5 5 -31 5 -58 0
-45 0 -59 0 -100 1 -17 1 -203 1 -230 -1 -7 -1 -24 -1 -38 0 -14 0 -33 0 -42
0 -10 0 -29 1 -43 1 -14 1 -32 1 -40 0 -8 0 -26 -1 -40 -1 -14 -1 -34 -1 -45
0 -11 0 -82 -1 -157 0 -75 2 -142 6 -147 3 -6 1 -11 -5 -11 -6 0 -9 -4 -5 -9
3 -5 5 -31 5 -58 0 -45 0 -59 0 -100 1 -17 1 -203 1 -230 -1 -7 -1 -24 -1 -38
0 -14 0 -33 0 -42 0 -10 0 -29 1 -43 1 -14 1 -32 1 -40 0 -8 0 -26 -1 -40 -1
-14 -1 -34 -1 -45 0 -11 0 -82 -1 -157 0 -75 2 -142 6 -147 3 -6 1 -11 -5 -11
-6 0 -9 -4 -5 -9 3 -5 5 -31 5 -58 0 -26 0 -56 0 -65 1 -69 1 -191 1 -208 -3
-77 -2 -121 4 -130 3 -5 3 -10 -2 -10 -4 0 -7 -66 -6 -148 1 -81 2 -156 2
-167 -5 -291 -4 -917 2 -937 4 -16 5 -28 1 -28 -4 0 -6 -28 -5 -62 3 -105 3
-121 2 -180 0 -32 2 -62 6 -68 3 -5 3 -10 -2 -10 -4 0 -7 -28 -6 -62 3 -105 3
-121 2 -180 0 -32 2 -62 6 -68 3 -5 3 -10 -2 -10 -4 0 -7 -28 -6 -62 3 -105 3
-121 2 -180 0 -32 2 -62 6 -68 3 -5 3 -10 -2 -10 -4 0 -7 -30 -6 -67 1 -38 2
-79 2 -93 -5 -586 -4 -989 3 -1002 5 -10 5 -18 1 -18 -7 0 -8 -64 -3 -255 0
-16 0 -56 -1 -87 0 -32 2 -62 6 -68 3 -5 3 -10 -2 -10 -4 0 -7 -28 -6 -62 3
-105 3 -121 2 -180 0 -32 2 -62 6 -68 3 -5 3 -10 -2 -10 -7 0 -8 -24 -3 -155
0 -16 0 -48 -1 -70 -2 -93 -2 -95 31 -91 16 2 32 1 35 -2 3 -3 24 -5 48 -4 23
2 49 2 57 2 8 0 51 0 95 1 44 0 86 0 93 0 96 -4 182 -2 191 3 6 4 16 4 21 1 9
-6 66 -7 180 -5 8 0 36 0 61 -1 25 -1 50 1 56 4 6 4 18 4 27 1 20 -8 176 -11
176 -4 0 3 17 4 38 2 20 -1 73 -2 117 -2 44 1 87 1 95 1 8 -1 47 -1 85 0 39 0
77 0 85 0 70 -4 171 -2 178 3 6 3 20 2 33 -2 12 -5 33 -7 46 -4 l23 4 0 469
c0 439 -1 468 -17 467 -10 0 -63 3 -118 7 -55 4 -244 8 -421 9 l-320 0 -1 806
c-1 443 -4 942 -8 1110 -7 368 -7 458 0 470 3 5 1 11 -5 15 -6 4 -8 10 -5 15
3 5 5 35 5 67 -1 150 0 215 5 223 3 5 2 11 -2 13 -5 3 -6 39 -3 81 3 42 3 76
0 76 -3 0 -4 35 -2 77 2 43 3 86 3 96 0 9 0 50 -1 90 0 39 1 105 2 145 2 39 1
72 -2 72 -3 0 -4 19 -2 42 1 24 3 48 3 53 2 104 3 442 1 480 -1 22 -1 52 -1
68 0 15 0 60 -1 100 0 39 1 105 2 145 2 39 1 72 -2 72 -3 0 -4 19 -2 42 1 24
3 50 3 58 0 8 -1 57 -1 107 -1 51 1 97 5 102 3 5 2 12 -2 14 -5 3 -6 39 -3 81
3 42 3 76 0 76 -7 0 -3 137 4 155 2 8 1 27 -3 42 -5 16 -5 38 0 50 4 12 4 25
-1 28 -5 3 -5 19 1 37 5 18 6 79 3 137 -4 59 -6 117 -5 131 6 72 5 130 -1 130
-4 0 -4 10 0 23 4 12 7 87 5 167 -1 80 -3 152 -3 160 -2 83 0 233 3 313 1 37
0 67 -3 67 -3 0 -4 35 -2 77 2 43 3 87 3 98 0 11 0 54 0 95 0 41 -1 82 -1 90
-1 8 -1 148 -1 310 0 162 -1 318 -1 345 0 28 1 61 2 75 3 29 3 32 -1 130 -2
42 -1 80 3 85 8 15 6 623 -2 661 -5 19 -4 37 1 40 5 3 7 10 3 15 -8 13 -7 196
1 208 3 5 2 12 -2 14 -5 3 -6 39 -3 81 3 42 3 76 0 76 -3 0 -4 35 -2 77 2 43
3 86 3 96 0 9 0 50 -1 90 0 39 1 105 2 145 2 39 1 72 -2 72 -3 0 -4 19 -2 42
1 24 3 50 3 58 0 8 -1 57 -1 107 -1 51 1 97 5 102 3 5 2 12 -2 14 -5 3 -6 39
-3 81 3 42 3 76 0 76 -3 0 -4 35 -2 77 2 43 3 86 3 96 0 9 0 50 -1 90 0 39 1
105 2 145 2 39 1 72 -2 72 -3 0 -4 35 -2 77 2 43 4 85 4 93 1 24 -11 121 -18
142 -3 11 -17 23 -31 29 -14 5 -201 9 -433 9 l-410 0 -6 -26z"/>
<path d="M17318 21195 c-4 -4 -62 -9 -130 -11 -68 -2 -125 -4 -128 -5 -3 -1
-9 0 -15 1 -24 5 -243 2 -253 -4 -6 -3 -13 -3 -16 2 -4 7 -59 7 -178 -1 -27
-1 -48 0 -48 3 0 3 -17 4 -37 2 -21 -1 -97 -5 -169 -9 -153 -7 -152 -6 -147
-108 2 -33 3 -85 2 -115 -4 -261 0 -1034 5 -1070 4 -25 8 -97 10 -160 1 -63 5
-120 8 -126 4 -5 3 -16 -2 -24 -5 -9 -5 -19 2 -27 7 -9 8 -110 4 -320 -4 -170
-5 -438 -4 -598 1 -159 2 -1113 3 -2120 0 -1775 -6 -2457 -23 -2540 -11 -54
-9 -2306 2 -2324 7 -10 5 -12 -4 -6 -8 5 -11 4 -7 -2 21 -34 26 -207 33 -1131
l6 -672 24 -6 c31 -8 174 -11 174 -4 0 3 29 3 65 0 36 -3 65 -3 65 1 0 3 18 3
39 -1 22 -4 45 -4 51 0 14 9 284 5 298 -4 6 -3 13 0 15 6 3 7 6 8 6 3 1 -8
110 -11 116 -2 14 16 27 1973 14 2047 -5 30 -11 375 -13 765 -2 391 -5 724 -7
740 -2 17 -1 40 3 53 4 12 4 22 0 22 -4 0 -6 19 -4 42 2 24 5 120 8 213 3 94
9 215 13 270 5 55 9 221 10 369 0 148 4 279 7 290 10 31 10 146 0 146 -5 0 -4
6 1 13 10 14 10 137 0 154 -4 6 -3 14 1 17 5 3 8 17 7 31 -3 23 6 31 30 25 33
-8 245 -4 245 5 0 7 3 7 8 0 8 -11 135 -11 223 0 61 8 74 2 148 -59 58 -50 95
-92 116 -133 10 -21 25 -45 32 -54 16 -19 64 -200 68 -256 1 -22 6 -47 10 -54
5 -7 4 -10 -3 -5 -7 4 -8 -2 -3 -20 3 -14 4 -53 1 -86 -5 -50 -5 -531 0 -578
1 -8 1 -51 1 -95 0 -44 0 -87 0 -95 0 -8 0 -37 0 -65 0 -27 0 -57 0 -65 0 -8
0 -51 0 -95 0 -44 0 -88 0 -97 0 -93 0 -136 -2 -153 -3 -28 -3 -433 0 -470 1
-16 2 -56 2 -87 0 -32 0 -64 0 -70 1 -7 -3 -69 -7 -138 -16 -232 -7 -970 11
-1000 3 -5 1 -11 -4 -14 -5 -3 -6 -21 -1 -40 4 -19 4 -52 0 -74 -4 -21 -4 -59
-1 -83 4 -24 4 -68 1 -97 -4 -29 -2 -55 2 -58 5 -3 6 -10 2 -15 -7 -12 -8
-164 -1 -176 3 -4 2 -27 -2 -50 -5 -23 -5 -62 -1 -87 4 -25 3 -46 -1 -46 -6 0
-6 -726 1 -740 1 -3 1 -19 0 -37 l-1 -31 343 3 c315 3 517 11 527 20 14 15 19
542 8 927 -3 115 -1 156 7 151 8 -5 8 -3 0 8 -11 13 -11 133 -1 184 3 11 0 26
-6 33 -6 8 -6 12 2 12 9 0 12 199 10 845 -1 611 -5 845 -13 845 -7 0 -7 3 -1
8 10 7 14 146 20 892 2 234 6 446 10 473 3 26 3 47 -2 47 -4 0 -9 48 -11 106
-2 59 -6 116 -8 128 -9 44 -32 192 -33 206 -2 46 -13 115 -31 195 -26 112 -23
103 -42 145 -18 38 -28 70 -27 84 0 5 -3 12 -8 15 -4 3 -32 54 -61 114 -30 59
-59 113 -65 120 -7 6 -21 30 -32 52 -11 22 -27 48 -36 58 -10 10 -16 24 -15
31 2 14 47 80 58 84 4 2 8 10 8 18 0 8 5 14 10 14 6 0 10 5 10 10 0 6 11 28
25 50 14 22 25 46 25 55 0 8 5 15 10 15 6 0 10 5 10 11 0 18 73 183 84 191 6
4 7 8 2 8 -5 0 -4 6 2 13 6 6 20 50 31 97 12 46 25 86 29 90 4 3 8 19 9 35 6
108 15 204 20 225 16 66 24 435 10 464 -6 12 -5 16 1 12 12 -7 17 313 13 1009
-3 557 -3 565 -13 580 -3 6 -3 28 0 50 7 50 7 1160 -1 1235 -9 96 -29 223 -40
250 -3 8 -10 40 -17 70 -11 57 -28 124 -38 150 -3 8 -6 17 -6 20 -3 14 -52
108 -68 132 -10 14 -18 31 -18 38 0 7 -9 24 -20 40 -11 15 -17 29 -14 32 2 3
-2 11 -11 18 -8 7 -15 19 -15 26 0 8 -4 14 -10 14 -5 0 -10 9 -10 20 0 11 -4
20 -10 20 -5 0 -10 7 -10 15 0 8 -18 33 -40 56 -22 23 -42 51 -46 63 -21 70
-198 237 -314 297 -47 24 -87 46 -90 49 -10 11 -97 48 -150 65 -30 10 -88 19
-128 21 -39 2 -77 6 -82 9 -6 4 -81 8 -168 10 -86 1 -177 6 -202 10 -25 3 -48
3 -52 0z m-155 -979 c3 5 61 8 129 6 67 -1 132 -2 143 -1 138 7 265 -4 265
-22 0 -6 4 -8 9 -5 11 7 72 -14 88 -30 7 -7 16 -14 21 -16 15 -6 109 -132 131
-175 24 -47 60 -255 51 -293 -3 -13 -3 -43 0 -65 3 -22 3 -64 0 -93 -4 -29 -2
-55 2 -58 5 -3 6 -10 2 -15 -5 -8 -6 -71 -2 -184 0 -11 -3 -76 -8 -145 -12
-205 -11 -797 2 -810 7 -7 9 -24 4 -43 -4 -18 -5 -41 -3 -52 5 -32 4 -165 -2
-175 -3 -5 -1 -11 5 -15 6 -4 8 -11 4 -16 -3 -5 -5 -44 -4 -87 1 -84 1 -99 1
-187 -1 -33 0 -86 2 -118 1 -31 -2 -57 -6 -57 -5 0 -5 -6 -1 -12 5 -7 10 -22
11 -33 7 -41 8 -1021 2 -1055 -4 -19 -12 -62 -19 -95 -18 -92 -69 -182 -152
-267 -10 -10 -18 -21 -19 -25 -1 -16 -71 -66 -112 -82 -34 -12 -96 -16 -320
-19 -260 -3 -278 -2 -285 15 -15 38 1 1120 19 1183 0 3 0 32 0 65 -2 75 -2 56
1 218 2 75 -1 137 -5 137 -4 0 -4 8 0 18 9 19 9 126 -1 212 -16 145 -18 247
-19 820 -2 565 5 939 19 1065 8 73 8 145 1 185 -5 28 -11 266 -8 317 1 14 34
22 42 10 4 -5 9 -5 12 -1z"/>
<path d="M24107 21193 c-1 0 -44 -3 -95 -5 -52 -1 -96 -6 -99 -11 -12 -20 -17
-655 -14 -1957 4 -1978 4 -2008 -3 -2350 -4 -168 -8 -425 -10 -571 -2 -146 -6
-270 -9 -276 -4 -6 -3 -13 0 -17 9 -9 11 -81 15 -661 4 -561 1 -758 -13 -749
-5 3 -9 11 -7 17 2 11 -6 85 -19 166 -3 19 -6 46 -7 60 -2 15 -6 33 -9 41 -4
8 -9 47 -12 85 -10 118 -17 165 -24 165 -3 0 -6 17 -5 38 0 20 -7 76 -16 123
-9 48 -16 117 -15 153 0 36 -3 66 -7 66 -4 0 -8 11 -8 23 0 13 -3 27 -7 31 -8
7 -10 18 -18 91 -15 134 -23 192 -28 215 -4 14 -9 48 -12 75 -8 80 -12 106
-24 170 -10 56 -16 98 -26 200 -2 22 -8 41 -13 43 -7 2 -7 14 -2 32 5 17 5 32
0 35 -5 3 -9 13 -9 23 1 31 -12 106 -28 167 -8 33 -16 78 -18 100 -2 38 -8 91
-21 215 -3 30 -7 73 -9 95 -2 22 -6 58 -9 80 -4 22 -9 58 -11 80 -11 103 -13
121 -18 135 -3 8 -10 60 -17 115 -12 101 -15 126 -24 180 -2 17 -7 53 -10 80
-7 58 -17 109 -32 168 -3 12 -8 42 -10 67 -3 25 -9 74 -14 110 -5 36 -12 88
-15 115 -3 28 -8 61 -11 75 -3 14 -8 43 -10 65 -3 22 -10 58 -15 80 -6 22 -12
65 -14 95 -2 30 -7 73 -10 95 -4 22 -8 54 -10 70 -2 17 -9 50 -15 75 -6 25
-13 60 -15 78 -9 93 -17 151 -27 187 -6 22 -12 54 -14 70 -3 40 -13 123 -20
160 -3 17 -7 35 -8 40 -1 6 -5 16 -9 23 -5 7 -3 12 3 12 7 0 8 6 1 18 -5 9 -9
22 -9 27 0 9 -8 68 -18 150 -3 17 -6 50 -8 75 -3 25 -7 52 -9 60 -3 8 -8 38
-11 65 -3 28 -10 84 -16 125 -6 41 -12 93 -14 115 -2 22 -7 56 -11 75 -4 19
-9 57 -10 85 -1 27 -5 75 -9 105 -7 64 -19 153 -21 160 -2 7 -13 84 -20 140
-4 25 -10 74 -15 110 -5 36 -11 88 -15 115 -4 28 -8 61 -11 75 -4 25 -12 74
-19 120 -2 14 -7 52 -10 85 -3 33 -10 81 -16 106 -6 26 -11 53 -12 60 -5 30
-17 38 -46 29 -15 -4 -33 -5 -39 -1 -5 3 -57 4 -114 3 -56 -2 -235 -7 -397
-10 l-294 -7 -5 -210 c-3 -115 -4 -250 -2 -300 9 -335 -1 -1035 -15 -1035 -7
0 -7 -3 0 -8 12 -9 19 -386 18 -1102 0 -447 -3 -606 -17 -828 -1 -18 1 -35 5
-38 4 -2 4 -17 0 -32 -4 -15 -6 -36 -5 -47 4 -37 4 -80 1 -118 -1 -21 0 -40 4
-43 4 -2 4 -17 0 -32 -4 -15 -6 -36 -5 -47 1 -11 3 -31 4 -45 1 -14 1 -29 0
-35 -1 -5 -1 -39 -1 -75 2 -73 2 -71 -2 -123 -1 -21 0 -40 4 -43 4 -2 4 -17 0
-32 -4 -15 -6 -36 -5 -47 4 -36 4 -79 2 -137 -2 -31 0 -54 4 -51 5 2 4 -7 -1
-20 -6 -14 -8 -27 -5 -29 17 -17 22 -563 9 -903 -9 -222 -9 -340 -1 -353 4 -7
4 -12 -1 -12 -10 0 -9 -52 1 -68 4 -7 4 -12 -1 -12 -10 0 -9 -52 1 -68 4 -7 3
-12 -2 -12 -5 0 -6 -20 -2 -44 4 -25 3 -52 -2 -60 -5 -9 -7 -20 -4 -24 4 -7 7
-62 6 -114 -1 -20 -1 -101 -1 -120 1 -7 4 -65 8 -128 13 -233 7 -809 -9 -826
-3 -3 -2 -20 2 -39 4 -19 5 -37 2 -40 -5 -5 -6 -95 -1 -122 1 -4 0 -12 -1 -18
-5 -27 -2 -203 4 -213 4 -7 4 -12 -1 -12 -10 0 -9 -52 1 -68 4 -7 4 -12 -1
-12 -10 0 -9 -52 1 -68 4 -7 4 -12 -1 -12 -10 0 -9 -52 1 -68 4 -7 3 -12 -1
-12 -10 0 -9 -53 2 -69 3 -6 2 -11 -2 -11 -10 0 -9 -53 2 -69 3 -6 3 -11 -2
-11 -10 0 -9 -52 1 -68 4 -7 4 -12 -1 -12 -10 0 -9 -52 1 -68 4 -6 3 -20 -2
-29 -5 -10 -6 -42 -3 -70 4 -29 4 -53 -1 -53 -4 0 -4 -10 1 -22 10 -27 11
-162 15 -1153 1 -407 -1 -753 -6 -770 -5 -16 -8 -55 -8 -85 1 -71 1 -78 -3
-123 -1 -21 0 -40 4 -43 4 -2 4 -17 0 -32 -4 -15 -6 -36 -5 -47 4 -37 4 -80 1
-118 -1 -21 0 -40 4 -43 4 -2 4 -17 0 -32 -4 -15 -6 -36 -5 -47 1 -11 3 -31 4
-45 1 -14 1 -29 0 -35 -5 -28 -2 -204 4 -213 4 -7 4 -12 -1 -12 -10 0 -9 -52
1 -68 4 -7 3 -12 -1 -12 -10 0 -10 -41 1 -58 4 -7 12 -12 17 -12 6 0 7 5 3 12
-5 7 -3 8 6 3 12 -8 215 -16 380 -17 57 0 450 9 462 11 18 3 21 462 22 3293 1
1692 4 3080 9 3084 4 4 7 -10 8 -32 0 -21 3 -48 5 -59 2 -11 6 -40 9 -64 2
-24 7 -60 9 -80 3 -20 8 -58 12 -86 8 -64 11 -80 24 -135 11 -50 28 -169 35
-245 3 -27 8 -61 12 -75 3 -14 5 -29 4 -34 -1 -4 3 -22 8 -40 9 -29 18 -88 25
-161 5 -43 18 -136 23 -160 2 -11 8 -51 13 -90 5 -38 11 -81 14 -95 4 -14 8
-59 11 -100 3 -41 8 -86 11 -100 3 -14 7 -38 9 -55 3 -16 7 -50 11 -75 4 -25
8 -58 9 -75 11 -104 17 -148 31 -210 8 -38 14 -83 13 -100 -2 -35 11 -95 20
-95 3 0 7 -10 7 -22 1 -13 9 -68 18 -123 15 -92 22 -139 31 -235 2 -19 4 -35
5 -35 3 0 10 -44 15 -100 3 -33 10 -85 16 -115 6 -30 15 -95 20 -145 5 -49 13
-115 19 -145 5 -30 12 -73 14 -95 2 -22 7 -56 11 -75 4 -19 9 -55 11 -80 10
-103 12 -116 18 -138 4 -12 9 -44 11 -70 2 -26 9 -85 15 -132 7 -47 14 -105
16 -130 3 -25 8 -52 11 -60 3 -8 7 -35 9 -60 2 -25 6 -61 9 -80 2 -19 6 -55
10 -80 10 -83 14 -115 20 -155 15 -112 27 -196 37 -255 21 -129 28 -184 33
-270 3 -36 7 -76 10 -90 4 -14 8 -36 9 -50 2 -14 6 -35 10 -47 4 -11 8 -34 10
-49 2 -16 7 -45 10 -64 4 -19 8 -51 10 -70 4 -43 16 -126 23 -160 2 -14 5 -32
5 -40 0 -8 5 -37 10 -65 5 -27 11 -66 14 -85 2 -19 7 -44 11 -54 3 -11 7 -34
9 -52 6 -65 14 -120 23 -158 6 -22 8 -43 5 -47 -2 -4 0 -10 6 -14 5 -3 10 -21
10 -38 0 -18 7 -66 16 -107 8 -41 17 -94 19 -117 2 -24 6 -56 9 -71 4 -15 9
-38 12 -52 3 -14 7 -51 8 -83 2 -31 6 -60 10 -64 3 -3 6 -14 6 -24 0 -17 13
-18 228 -13 125 2 265 4 312 3 285 -4 342 -3 350 11 5 8 9 154 9 325 0 170 3
320 5 333 8 39 9 148 2 160 -4 7 -4 12 1 12 4 0 8 304 9 675 0 387 -3 675 -8
675 -5 0 -6 5 -2 12 7 11 6 120 -1 160 -8 41 -5 941 3 1000 11 72 9 1269 -1
1285 -9 14 -9 756 0 863 8 104 10 813 2 831 -4 8 -4 21 0 28 5 7 4 31 0 54
-10 50 -12 604 -2 620 12 20 16 1014 7 1597 -3 168 -7 424 -10 570 -7 473 -6
1094 3 1135 5 22 9 258 9 525 l-1 485 -338 0 c-186 0 -339 -1 -340 -2z"/>
<path d="M32416 21193 c-3 -4 -52 -7 -108 -9 -57 -1 -107 -3 -113 -4 -5 -1
-12 -1 -15 0 -15 6 -73 4 -77 -3 -2 -4 -9 -4 -15 -1 -8 5 -245 7 -363 3 -5 0
-37 0 -70 1 -132 1 -326 -13 -333 -24 -8 -13 -9 -92 -10 -746 -1 -267 1 -498
5 -515 3 -16 7 -86 9 -155 1 -69 6 -150 10 -180 10 -72 10 -509 0 -580 -9 -67
-8 -444 0 -595 9 -140 8 -3602 0 -3830 -3 -93 -6 -246 -6 -340 0 -93 -5 -197
-11 -230 -12 -66 -15 -2320 -3 -2365 3 -14 8 -101 10 -195 5 -199 13 -400 15
-400 1 0 2 -265 4 -590 1 -324 3 -595 4 -601 1 -14 70 -24 77 -12 3 5 15 6 26
2 27 -8 178 -11 178 -3 0 4 17 3 38 -1 21 -4 47 -4 58 0 10 4 87 5 169 3 217
-4 298 -4 304 2 9 9 7 326 -1 332 -5 2 -5 10 -1 16 4 7 9 68 10 137 16 699 14
626 14 905 0 127 0 235 0 240 0 6 -2 105 -4 220 -5 195 -15 1220 -18 1715 0
118 2 278 5 355 3 77 8 271 11 430 3 160 7 298 9 308 2 9 1 17 -3 17 -4 0 -3
35 4 78 6 42 11 121 10 175 0 60 3 97 10 97 7 0 7 3 0 8 -10 7 -15 151 -5 153
3 1 28 2 55 3 28 1 56 5 63 10 6 4 12 4 12 -1 0 -12 124 -10 132 2 5 7 8 7 8
0 0 -11 172 -11 232 0 44 9 77 2 105 -22 12 -10 42 -35 68 -57 43 -36 115
-134 115 -156 0 -6 4 -10 9 -10 10 0 12 -8 47 -139 23 -86 24 -110 23 -305 0
-116 -1 -256 -1 -311 0 -55 0 -311 0 -570 0 -258 0 -499 0 -535 1 -301 -1
-605 -4 -655 -8 -105 -7 -701 0 -713 4 -7 6 -247 6 -534 -1 -288 -2 -588 -2
-668 -1 -80 0 -236 1 -346 l2 -202 358 3 c196 2 382 7 412 11 30 4 66 6 82 5
25 -1 27 1 28 41 1 53 9 131 14 137 3 2 0 12 -6 22 -5 11 -6 19 -2 19 11 0 10
131 0 148 -5 6 -4 12 0 12 10 0 9 257 0 267 -4 3 -2 14 3 24 6 10 6 20 2 23
-9 5 -9 417 0 816 2 124 1 233 -4 243 -5 9 -5 17 -1 17 11 0 10 181 0 198 -5
6 -4 12 0 12 10 0 10 241 0 258 -5 6 -4 12 0 12 11 0 10 181 0 198 -5 6 -5 12
0 12 12 0 10 244 -2 252 -7 5 -7 8 0 8 6 0 9 36 8 92 -1 51 -2 93 -3 93 -6 0
-4 195 2 213 4 12 3 22 -2 22 -5 0 -7 6 -5 13 10 25 12 117 3 117 -5 0 -6 6
-1 13 12 18 10 527 -2 527 -7 0 -7 3 0 8 6 4 11 86 12 207 1 110 3 254 4 320
2 137 -7 285 -21 365 -10 58 -28 186 -36 259 -2 24 -7 49 -11 54 -4 6 -8 26
-10 44 -5 46 -77 259 -93 273 -3 3 -20 37 -39 75 -19 39 -61 112 -93 164 -32
51 -58 98 -58 105 0 7 20 40 45 74 25 34 45 66 45 72 0 5 4 10 9 10 5 0 11 8
14 18 5 16 71 167 120 272 11 25 21 48 22 53 2 4 4 8 5 10 1 1 4 11 6 22 1 11
5 29 8 40 33 116 46 180 46 232 0 34 4 84 9 110 18 90 32 293 21 293 -5 0 -4
112 3 288 2 50 -1 92 -5 92 -5 0 -6 5 -2 12 9 14 16 266 14 448 -1 69 -3 197
-3 285 -1 93 -6 163 -12 167 -7 5 -6 8 1 8 7 0 9 70 6 218 -5 283 -5 339 0
387 3 22 0 46 -5 53 -5 6 -6 12 -1 12 5 0 9 226 9 510 0 280 -2 510 -6 510 -3
0 -6 17 -7 38 -8 112 -17 182 -37 263 -9 35 -18 75 -21 89 -4 23 -11 53 -21
88 -1 6 -5 20 -7 30 -3 9 -5 17 -6 17 -1 0 -3 9 -5 20 -4 18 -84 184 -95 195
-3 3 -26 46 -52 97 -25 50 -49 89 -52 85 -3 -3 -6 5 -6 17 0 12 -4 19 -10 16
-5 -3 -10 0 -10 8 0 8 -7 18 -16 21 -8 3 -24 27 -36 53 -26 60 -206 237 -280
277 -29 15 -90 48 -135 73 -46 25 -83 41 -83 38 0 -4 -7 -2 -15 5 -8 7 -15 9
-15 5 0 -4 -6 -3 -12 2 -30 23 -170 40 -408 48 -80 3 -168 7 -196 9 -29 3 -55
2 -58 -1z m-106 -973 c25 2 108 2 145 1 11 -1 79 0 150 2 72 1 141 -1 155 -4
14 -4 51 -15 82 -23 44 -13 68 -27 107 -67 27 -27 53 -59 56 -70 4 -10 11 -19
16 -19 17 0 68 -125 80 -197 12 -74 14 -683 3 -838 -9 -115 -8 -423 1 -680 9
-256 15 -676 19 -1325 3 -423 1 -529 -11 -595 -8 -44 -17 -87 -20 -95 -4 -8
-7 -21 -9 -29 -1 -8 -6 -17 -11 -20 -4 -3 -15 -19 -23 -36 -8 -16 -21 -36 -28
-43 -7 -8 -25 -30 -40 -50 -45 -60 -122 -128 -161 -142 -25 -10 -119 -15 -317
-17 l-280 -4 -10 43 c-10 42 -9 287 1 658 3 102 5 196 5 210 0 130 2 173 8
220 4 30 7 83 7 118 0 34 3 62 8 62 4 0 5 6 0 13 -11 17 -11 110 0 125 6 7 6
12 0 12 -10 0 -10 131 1 148 4 7 4 12 -1 12 -4 0 -8 42 -9 92 0 51 -3 131 -7
178 -4 47 -10 135 -13 195 -9 162 -11 1150 -3 1215 4 30 10 152 13 270 4 118
8 237 10 263 1 27 -1 76 -6 110 -9 72 -12 293 -4 306 3 4 18 6 33 4 16 -2 39
-4 53 -3z"/>
<path d="M518 8820 c-15 -5 -29 -6 -32 -3 -3 3 -5 -19 -5 -48 1 -30 0 -58 -1
-64 -1 -5 -1 -14 0 -20 5 -23 2 -103 -4 -114 -4 -6 -4 -11 1 -11 6 0 9 -161 2
-180 -1 -3 -1 -9 0 -14 7 -32 5 -88 -1 -92 -5 -3 -5 -11 -1 -17 4 -6 6 -24 5
-39 -2 -25 1 -28 30 -28 44 -1 34187 -1 34261 0 l57 0 -2 313 c-3 304 -3 312
-23 312 -11 1 -25 4 -31 8 -6 3 -14 4 -17 0 -9 -8 -447 -10 -447 -1 0 4 -7 5
-16 1 -24 -9 -434 -9 -434 0 0 5 -5 5 -12 1 -16 -10 -148 -11 -148 -1 0 5 -5
5 -12 1 -16 -10 -148 -11 -148 -1 0 5 -5 5 -12 1 -16 -10 -148 -11 -148 -1 0
5 -5 5 -11 1 -15 -9 -499 -11 -499 -2 0 4 -7 5 -16 1 -22 -8 -464 -9 -464 -1
0 4 -7 5 -16 1 -24 -9 -434 -9 -434 0 0 5 -5 5 -12 1 -16 -10 -148 -11 -148
-1 0 5 -5 5 -12 1 -16 -10 -148 -11 -148 -1 0 5 -5 5 -12 1 -16 -10 -148 -11
-148 -1 0 5 -5 5 -11 1 -15 -9 -499 -11 -499 -2 0 4 -7 5 -16 1 -22 -8 -464
-9 -464 -1 0 4 -7 5 -16 1 -24 -9 -434 -9 -434 0 0 5 -5 5 -12 1 -16 -10 -148
-11 -148 -1 0 5 -5 5 -12 1 -16 -10 -148 -11 -148 -1 0 5 -5 5 -12 1 -16 -10
-148 -11 -148 -1 0 5 -5 5 -11 1 -15 -9 -499 -11 -499 -2 0 4 -7 5 -16 1 -22
-8 -464 -9 -464 -1 0 4 -7 5 -16 1 -24 -9 -434 -9 -434 0 0 5 -5 5 -12 1 -16
-10 -148 -11 -148 -1 0 5 -5 5 -12 1 -16 -10 -148 -11 -148 -1 0 5 -5 5 -12 1
-16 -10 -148 -11 -148 -1 0 5 -5 5 -11 1 -15 -9 -499 -11 -499 -2 0 4 -7 5
-16 1 -22 -8 -464 -9 -464 -1 0 4 -7 5 -16 1 -24 -9 -434 -9 -434 0 0 5 -5 5
-12 1 -16 -10 -148 -11 -148 -1 0 5 -5 5 -12 1 -16 -10 -148 -11 -148 -1 0 5
-5 5 -12 1 -16 -10 -148 -11 -148 -1 0 5 -5 5 -12 1 -15 -9 -178 -11 -178 -2
0 4 -7 5 -16 1 -22 -8 -464 -10 -464 -1 0 4 -12 3 -27 0 -16 -4 -48 -6 -73 -5
-25 2 -58 3 -75 2 -16 0 -128 -1 -248 -2 -119 -1 -217 1 -217 5 0 4 -7 5 -15
2 -22 -9 -145 -11 -145 -2 0 4 -7 5 -16 1 -22 -8 -464 -10 -464 -1 0 4 -12 3
-27 0 -16 -4 -48 -6 -73 -5 -25 2 -58 3 -75 2 -16 0 -128 -1 -248 -2 -119 -1
-217 1 -217 5 0 4 -7 5 -15 2 -22 -9 -145 -11 -145 -2 0 4 -7 5 -16 1 -22 -8
-464 -10 -464 -1 0 4 -12 3 -27 0 -16 -4 -48 -6 -73 -5 -25 2 -58 3 -75 2 -16
0 -128 -1 -248 -2 -119 -1 -217 1 -217 5 0 4 -7 5 -15 2 -22 -9 -145 -11 -145
-2 0 4 -7 5 -16 1 -22 -8 -464 -10 -464 -1 0 4 -12 3 -27 0 -16 -4 -48 -6 -73
-5 -25 2 -58 3 -75 2 -16 0 -128 -1 -248 -2 -119 -1 -217 1 -217 5 0 4 -7 5
-15 2 -22 -9 -145 -11 -145 -2 0 4 -7 5 -16 1 -22 -8 -464 -10 -464 -1 0 4
-12 3 -28 0 -15 -4 -47 -6 -72 -5 -25 2 -58 3 -75 2 -16 0 -128 -1 -248 -2
-119 -1 -217 1 -217 5 0 4 -7 5 -15 2 -22 -9 -145 -11 -145 -2 0 4 -7 5 -16 1
-22 -8 -464 -10 -464 -1 0 4 -12 3 -28 0 -15 -4 -47 -6 -72 -5 -25 2 -58 3
-75 2 -16 0 -128 -1 -248 -2 -119 -1 -217 1 -217 5 0 4 -7 5 -15 2 -22 -9
-145 -11 -145 -2 0 4 -7 5 -16 1 -22 -8 -464 -10 -464 -1 0 4 -12 3 -28 0 -15
-4 -47 -6 -72 -5 -25 2 -58 3 -75 2 -16 0 -128 -1 -248 -2 -119 -1 -217 1
-217 5 0 4 -7 5 -15 2 -22 -9 -145 -11 -145 -2 0 4 -7 5 -16 1 -22 -8 -464
-10 -464 -1 0 4 -12 3 -27 0 -16 -4 -48 -6 -73 -5 -25 2 -58 3 -75 2 -16 0
-128 -1 -248 -2 -119 -1 -217 1 -217 5 0 4 -7 5 -15 2 -24 -10 -115 -10 -115
-1 0 4 -5 5 -12 1 -16 -10 -148 -11 -148 -1 0 5 -5 5 -12 1 -16 -10 -148 -11
-148 -1 0 5 -5 5 -12 1 -16 -10 -148 -11 -148 -1 0 5 -5 5 -11 1 -15 -9 -499
-11 -499 -2 0 4 -7 5 -16 1 -22 -8 -464 -9 -464 -1 0 4 -7 5 -16 1 -24 -9
-434 -9 -434 0 0 5 -5 5 -12 1 -16 -10 -148 -11 -148 -1 0 5 -5 5 -12 1 -16
-10 -148 -11 -148 -1 0 5 -5 5 -12 1 -16 -10 -148 -11 -148 -1 0 5 -5 5 -11 1
-15 -9 -499 -11 -499 -2 0 4 -7 5 -16 1 -22 -8 -464 -9 -464 -1 0 4 -7 5 -16
1 -24 -9 -434 -9 -434 0 0 5 -5 5 -12 1 -16 -10 -148 -11 -148 -1 0 5 -5 5
-12 1 -16 -10 -148 -11 -148 -1 0 5 -5 5 -12 1 -16 -10 -148 -11 -148 -1 0 5
-5 5 -11 1 -15 -9 -499 -11 -499 -2 0 4 -7 5 -16 1 -22 -8 -464 -9 -464 -1 0
4 -7 5 -16 1 -24 -9 -434 -9 -434 0 0 5 -5 5 -12 1 -16 -10 -148 -11 -148 -1
0 5 -5 5 -12 1 -16 -10 -148 -11 -148 -1 0 5 -5 5 -12 1 -16 -10 -148 -11
-148 -1 0 5 -5 5 -11 1 -15 -9 -499 -11 -499 -2 0 4 -7 5 -16 1 -22 -8 -464
-9 -464 -1 0 4 -7 5 -16 1 -24 -9 -434 -9 -434 0 0 5 -5 5 -12 1 -16 -10 -148
-11 -148 -1 0 5 -5 5 -12 1 -16 -10 -148 -11 -148 -1 0 5 -5 5 -12 1 -16 -10
-148 -11 -148 -1 0 5 -5 5 -11 1 -15 -9 -499 -11 -499 -2 0 4 -7 5 -16 1 -22
-8 -464 -9 -464 -1 0 4 -7 5 -16 1 -24 -9 -434 -9 -434 0 0 5 -5 5 -12 1 -16
-10 -148 -11 -148 -1 0 5 -5 5 -12 1 -16 -10 -148 -11 -148 -1 0 5 -5 5 -12 1
-16 -10 -148 -11 -148 -1 0 5 -5 5 -12 1 -15 -9 -178 -11 -178 -2 0 4 -7 5
-16 1 -22 -8 -464 -10 -464 -1 0 4 -12 3 -27 0 -16 -4 -48 -6 -73 -5 -25 2
-58 3 -75 2 -16 0 -128 -1 -248 -2 -119 -1 -217 1 -217 5 0 4 -7 5 -15 2 -22
-9 -145 -11 -145 -2 0 4 -7 5 -16 1 -22 -8 -464 -10 -464 -1 0 4 -12 3 -27 0
-16 -4 -48 -6 -73 -5 -25 2 -58 3 -75 2 -16 0 -128 -1 -248 -2 -119 -1 -217 1
-217 5 0 4 -7 5 -15 2 -22 -9 -145 -11 -145 -2 0 4 -7 5 -16 1 -22 -8 -464
-10 -464 -1 0 4 -12 3 -27 0 -16 -4 -48 -6 -73 -5 -25 2 -58 3 -75 2 -16 0
-128 -1 -248 -2 -119 -1 -217 1 -217 5 0 4 -7 5 -15 2 -22 -9 -145 -11 -145
-2 0 4 -7 5 -16 1 -22 -8 -464 -9 -464 -1 0 4 -7 5 -15 2 -22 -9 -107 -11
-130 -3 -11 3 -32 3 -47 -1z"/>
<path d="M7518 6845 c-2 -2 -25 -7 -50 -9 -52 -6 -113 -29 -140 -53 -10 -9
-18 -13 -18 -10 0 3 -11 -4 -25 -17 -14 -13 -25 -28 -25 -35 0 -6 -4 -11 -10
-11 -8 0 -46 -70 -57 -105 -14 -47 -33 -153 -29 -167 2 -10 0 -18 -6 -18 -5 0
-7 -4 -3 -9 6 -11 10 -210 3 -216 -5 -5 15 -145 27 -189 21 -76 87 -167 152
-207 71 -44 219 -65 313 -45 19 4 45 8 58 9 12 0 22 5 22 9 0 4 3 7 8 6 11 -3
104 48 135 75 l27 24 0 221 c0 133 -4 223 -10 227 -5 3 -18 1 -28 -4 -11 -6
-22 -8 -25 -5 -3 3 -72 6 -153 6 l-148 1 -2 -59 c0 -33 4 -65 10 -73 8 -11 8
-13 -1 -7 -8 4 -13 1 -13 -8 0 -13 14 -16 78 -16 l79 0 0 -95 c0 -52 -4 -95
-9 -95 -5 0 -7 -4 -4 -9 10 -15 -55 -35 -113 -35 -83 1 -132 32 -158 99 -22
55 -25 97 -25 281 0 206 13 272 63 320 16 15 29 24 29 18 0 -5 4 -4 8 3 6 9
84 19 102 13 3 -1 13 -3 22 -5 41 -8 87 -83 88 -142 0 -27 10 -29 122 -25 l90
3 -5 32 c-10 60 -19 100 -29 126 -5 14 -10 28 -11 31 -2 10 -22 33 -63 75 -47
48 -126 79 -209 84 -27 2 -53 5 -56 7 -3 2 -8 1 -11 -1z"/>
<path d="M8664 6834 c-38 -6 -87 -21 -109 -32 -80 -41 -147 -127 -149 -193 -1
-16 -4 -29 -7 -29 -11 0 -2 -74 15 -133 13 -45 29 -70 71 -114 30 -30 55 -53
55 -49 0 4 12 -2 28 -12 35 -26 158 -82 177 -82 8 0 15 -3 15 -7 0 -5 13 -15
29 -25 44 -24 64 -71 59 -134 -6 -71 -42 -104 -113 -104 -83 0 -145 56 -145
133 0 20 -3 38 -7 38 -5 1 -54 2 -110 3 l-102 2 0 -36 c1 -67 44 -162 98 -213
84 -82 218 -117 355 -94 117 20 207 98 234 202 8 29 6 155 -2 189 -15 64 -90
150 -171 195 -27 15 -117 53 -132 57 -17 3 -74 39 -99 61 -45 42 -55 110 -22
163 21 34 82 52 131 39 57 -14 87 -58 91 -130 0 -14 15 -16 104 -16 119 0 120
0 102 79 -41 179 -199 276 -396 242z"/>
<path d="M12464 6839 c-89 -11 -148 -37 -207 -90 -31 -28 -57 -57 -57 -65 0
-8 -3 -14 -7 -14 -9 0 -36 -65 -55 -130 -8 -29 -12 -115 -13 -245 0 -208 9
-276 46 -342 10 -18 16 -33 13 -33 -2 0 6 -12 20 -27 14 -15 23 -29 21 -33 -6
-10 119 -86 164 -99 52 -15 193 -16 239 -2 121 36 214 143 247 282 18 76 21
399 4 469 -6 25 -13 55 -15 68 -7 35 -51 112 -88 154 -30 34 -122 90 -156 95
-8 2 -35 6 -60 11 -25 4 -68 5 -96 1z m107 -191 c27 -6 44 -24 69 -74 29 -58
30 -69 33 -269 4 -178 -3 -238 -32 -298 -23 -48 -50 -67 -105 -78 -89 -16
-163 38 -185 136 -16 69 -16 384 -1 440 6 22 12 45 13 50 23 85 101 120 208
93z"/>
<path d="M14729 6838 c-20 -4 -47 -9 -60 -11 -63 -12 -145 -75 -185 -142 -26
-45 -29 -58 -29 -140 0 -102 14 -140 74 -203 34 -37 114 -94 136 -98 6 -1 48
-20 95 -42 85 -41 132 -78 136 -109 2 -9 5 -27 8 -39 4 -13 2 -25 -3 -28 -5
-3 -7 -14 -4 -24 12 -49 -79 -96 -152 -78 -58 13 -87 47 -100 114 l-12 57
-104 0 -104 0 -1 -30 c-2 -82 56 -193 128 -245 137 -100 359 -98 474 3 63 55
90 119 96 222 2 30 -16 104 -35 144 -21 44 -101 131 -121 131 -5 0 -17 6 -25
14 -9 8 -52 28 -96 46 -44 18 -87 39 -96 46 -8 8 -20 14 -25 15 -19 1 -55 59
-58 96 -6 67 32 116 97 126 83 13 132 -35 146 -144 1 -4 48 -6 105 -6 101 1
105 1 109 24 2 12 2 25 -1 28 -3 3 -7 15 -9 27 -7 43 -52 129 -85 159 -72 67
-208 106 -299 87z"/>
<path d="M15618 6845 c-2 -2 -25 -5 -51 -8 -131 -16 -263 -131 -293 -256 -2
-9 -8 -36 -15 -61 -10 -44 -15 -372 -5 -438 21 -143 112 -267 230 -311 133
-50 311 -22 398 63 36 34 73 78 74 86 4 21 17 50 23 50 4 0 8 6 8 13 0 6 4 26
7 42 26 112 29 409 6 507 -28 120 -101 222 -190 268 -37 20 -183 53 -192 45z
m118 -229 c44 -51 59 -109 65 -251 0 -16 0 -34 -1 -40 -1 -5 -1 -56 -1 -112 0
-56 -4 -105 -10 -108 -5 -4 -7 -10 -4 -15 10 -17 -14 -84 -42 -117 -54 -62
-164 -64 -222 -3 -46 49 -56 103 -56 310 0 251 14 311 85 358 30 20 44 23 95
19 54 -5 63 -9 91 -41z"/>
<path d="M16528 6845 c-2 -2 -29 -5 -61 -9 -139 -14 -246 -110 -293 -262 -15
-49 -18 -94 -19 -269 0 -203 3 -240 27 -315 49 -158 171 -243 345 -242 89 0
127 8 187 38 60 30 106 77 136 140 24 48 29 68 37 145 l5 45 -99 -2 c-54 -1
-101 -2 -105 -3 -4 0 -10 -23 -14 -50 -13 -100 -64 -142 -162 -135 -49 4 -62
9 -89 38 -29 31 -50 84 -52 131 -3 113 0 402 5 423 12 54 28 88 57 114 17 15
34 25 38 22 5 -3 17 -1 27 5 20 11 108 -4 130 -22 23 -18 40 -61 45 -111 3
-27 10 -52 16 -55 8 -5 179 -7 201 -2 7 1 1 69 -7 91 -3 8 -8 24 -10 34 -2 11
-8 25 -14 33 -6 7 -8 13 -5 13 14 0 -30 66 -69 105 -45 45 -92 74 -133 82 -59
11 -122 20 -124 18z"/>
<path d="M25048 6845 c-2 -1 -34 -5 -71 -8 -83 -7 -159 -41 -209 -92 -45 -47
-102 -157 -95 -184 3 -11 0 -22 -6 -24 -17 -5 -22 -360 -7 -456 7 -42 17 -82
22 -88 6 -7 8 -13 4 -13 -9 0 45 -97 65 -118 23 -24 52 -47 62 -49 4 -1 14 -9
22 -16 39 -39 200 -62 310 -43 88 15 194 67 233 114 9 12 12 74 12 234 l0 218
-87 1 c-148 1 -267 -2 -273 -7 -3 -3 -5 -39 -6 -79 l0 -74 75 -3 76 -3 0 -99
1 -99 -34 -14 c-118 -49 -231 1 -261 116 -11 44 -16 390 -7 454 14 92 77 150
160 148 88 -2 125 -35 141 -128 4 -24 11 -43 16 -44 5 0 38 0 74 0 139 0 127
-4 120 39 -13 87 -19 109 -43 152 -14 24 -31 51 -39 58 -7 7 -13 18 -13 23 0
6 -4 7 -10 4 -5 -3 -10 -2 -10 4 0 16 -88 53 -157 66 -35 6 -64 11 -65 10z"/>
<path d="M27540 6843 c-14 -2 -50 -8 -80 -15 -30 -6 -58 -11 -62 -10 -5 1 -8
-2 -8 -7 0 -5 -9 -13 -20 -16 -65 -21 -158 -160 -176 -266 -10 -53 -11 -409
-2 -459 18 -99 52 -172 107 -227 34 -35 95 -74 124 -79 7 -2 32 -6 57 -11 25
-5 68 -8 95 -6 28 2 57 4 65 4 8 0 22 3 30 6 8 4 20 7 25 8 28 4 75 28 75 38
0 6 3 7 6 4 10 -9 94 83 100 110 4 13 11 23 17 23 6 0 8 3 4 6 -3 3 -1 18 4
32 8 21 21 87 21 112 1 22 -12 25 -107 26 l-105 0 -2 -25 c-4 -72 -25 -125
-57 -144 -34 -20 -103 -28 -145 -16 -43 12 -83 55 -91 97 -15 74 -21 184 -11
200 4 7 3 12 -1 12 -9 0 -8 169 1 245 8 64 18 105 27 105 4 0 11 9 14 20 7 21
58 53 69 43 3 -4 6 -2 6 3 0 5 12 9 28 8 15 -1 27 -3 27 -4 0 -1 15 -3 34 -5
25 -2 43 -12 61 -35 15 -18 27 -38 28 -44 0 -6 4 -34 7 -62 l7 -50 55 1 c29 1
56 -2 59 -7 3 -4 11 -5 17 -1 7 4 28 8 47 8 31 1 35 4 33 25 -6 85 -51 205
-91 245 -30 31 -82 70 -87 67 -3 -1 -19 5 -35 13 -17 9 -54 18 -83 21 -28 3
-54 7 -57 8 -3 1 -16 1 -30 -1z"/>
<path d="M26478 6834 c-4 -3 -49 -6 -102 -6 l-96 -1 -1 -31 c0 -17 0 -67 1
-111 0 -44 1 -84 1 -90 0 -5 -1 -60 -1 -122 -1 -62 1 -117 4 -122 4 -5 3 -12
-1 -14 -5 -3 -7 -134 -5 -291 l3 -286 109 0 110 0 0 273 c-1 149 0 277 0 282
1 6 2 37 2 70 0 33 2 52 4 43 3 -10 10 -18 15 -18 5 0 9 -7 9 -15 0 -8 4 -23
10 -33 5 -9 24 -48 41 -87 17 -38 51 -115 76 -170 25 -55 54 -120 65 -145 11
-25 32 -72 48 -105 15 -33 30 -68 33 -77 6 -16 21 -18 116 -18 l110 0 0 535 0
534 -109 0 -108 -1 -1 -335 c0 -185 -2 -338 -5 -341 -3 -2 -10 7 -15 22 -6 14
-21 47 -33 74 -12 26 -23 49 -23 52 -2 5 -11 26 -69 153 -14 31 -37 81 -50
110 -13 28 -38 84 -56 122 -18 39 -41 89 -51 113 -19 43 -21 46 -31 36z"/>
<path d="M601 6807 c0 -12 0 -74 0 -137 0 -63 0 -119 0 -125 0 -5 0 -39 -1
-75 -1 -36 -1 -69 0 -75 1 -5 1 -14 0 -20 -4 -20 0 -137 5 -145 3 -5 1 -11 -4
-15 -7 -3 -7 -15 -1 -29 5 -13 7 -26 5 -28 -2 -2 -4 -26 -4 -53 -1 -28 -1 -61
-2 -75 -1 -27 -1 -62 2 -112 0 -18 0 -37 -1 -43 -1 -5 -2 -34 -1 -62 l1 -53
104 0 c74 0 105 4 108 13 5 15 1 418 -6 472 -2 22 1 46 8 54 8 12 8 13 -2 7
-9 -6 -13 1 -12 26 0 18 0 49 -1 68 -1 50 0 64 7 58 3 -4 7 -17 8 -30 3 -20
28 -105 43 -148 4 -8 7 -22 9 -30 1 -8 8 -31 14 -50 6 -19 37 -125 69 -235
l57 -200 73 0 73 0 18 48 c10 26 19 51 19 55 1 4 6 25 12 47 6 22 13 48 14 57
2 10 7 23 10 28 3 5 8 18 10 27 2 10 18 68 35 128 18 61 33 118 33 128 1 9 4
17 8 17 3 0 12 27 19 60 7 33 16 60 21 60 5 0 6 6 3 14 -3 8 -1 17 4 20 9 5 9
-17 -2 -237 -1 -37 -5 -69 -7 -71 -2 -2 -3 -90 -1 -195 l3 -192 107 3 107 3
-1 530 0 530 -140 2 -141 2 -22 -87 c-13 -48 -25 -96 -28 -107 -2 -11 -6 -27
-8 -35 -1 -8 -5 -22 -8 -30 -14 -35 -26 -94 -21 -102 3 -4 0 -8 -7 -8 -7 0
-10 -3 -6 -6 3 -3 -1 -24 -9 -47 -8 -23 -16 -53 -18 -67 -2 -14 -6 -32 -9 -40
-5 -12 -28 -99 -43 -160 -12 -50 -22 -74 -26 -60 -14 44 -29 97 -59 215 -18
72 -37 132 -41 133 -5 2 -6 8 -3 13 3 5 1 26 -4 46 -6 21 -10 40 -10 43 0 3
-4 17 -10 33 -6 15 -13 40 -16 55 -3 15 -7 32 -9 37 -1 6 -8 30 -15 55 -7 25
-15 53 -17 63 -11 59 -4 57 -154 56 -136 -1 -140 -2 -139 -22z"/>
<path d="M1999 6824 c-1 -2 -2 -7 -3 -11 -12 -57 -41 -143 -48 -143 -5 0 -7
-4 -3 -9 3 -5 1 -20 -4 -33 -8 -19 -43 -131 -103 -328 -6 -19 -14 -44 -19 -55
-14 -35 -101 -319 -102 -332 0 -7 -4 -13 -9 -13 -5 0 -7 -4 -4 -8 2 -4 -4 -34
-15 -67 -10 -32 -19 -60 -19 -62 0 -1 51 -3 114 -3 l114 0 27 109 27 108 62 0
c34 0 68 3 74 7 6 3 13 3 15 -1 3 -5 37 -7 76 -7 39 1 72 -3 72 -7 2 -15 4
-21 29 -116 l25 -93 112 0 c102 0 113 2 113 18 0 10 -4 22 -8 27 -5 6 -14 35
-21 65 -8 30 -17 60 -21 65 -4 6 -11 26 -16 45 -10 45 -9 40 -22 73 -7 16 -12
32 -12 37 0 4 -11 40 -24 79 -13 39 -22 71 -20 71 3 0 -3 15 -13 33 -9 17 -17
43 -19 57 -1 14 -9 42 -18 62 -9 21 -16 40 -16 43 0 3 -2 10 -5 17 -17 56 -65
214 -65 220 -1 4 -8 24 -16 43 -8 20 -12 40 -9 45 4 6 2 10 -3 10 -5 0 -12 13
-15 30 l-6 29 -101 0 c-55 0 -101 -2 -101 -5z m148 -467 c24 -90 45 -171 48
-179 5 -13 -3 -17 -47 -20 -29 -1 -74 -2 -99 0 -43 3 -46 5 -42 25 3 12 21 79
39 149 19 70 34 131 33 135 -2 13 13 53 20 53 4 0 25 -74 48 -163z"/>
<path d="M2634 6769 c0 -35 4 -59 10 -59 8 0 8 -3 1 -8 -14 -10 -14 -312 0
-312 7 0 7 -3 0 -8 -14 -10 -14 -304 0 -314 6 -5 6 -8 0 -8 -6 0 -10 -57 -10
-149 l-1 -149 108 -1 108 -2 1 48 c0 26 0 114 0 196 l-1 147 55 0 c44 0 57 -4
61 -17 3 -10 9 -25 13 -33 4 -8 29 -69 56 -135 26 -66 56 -139 66 -162 l19
-43 115 0 c63 0 115 4 115 8 0 5 -6 22 -14 38 -8 16 -21 45 -29 64 -8 19 -25
57 -37 85 -25 55 -37 86 -39 98 0 4 -11 28 -25 55 -31 62 -42 112 -24 112 20
1 73 59 98 107 26 51 34 88 34 173 0 108 -2 117 -60 217 -11 18 -24 33 -30 33
-6 0 -19 9 -29 20 -10 11 -26 20 -37 20 -10 0 -18 4 -18 9 0 17 -148 31 -325
30 l-180 0 -1 -60z m400 -133 c34 -19 54 -49 62 -91 8 -44 6 -114 -4 -130 -4
-5 -7 -12 -7 -15 0 -12 -32 -48 -50 -57 -11 -6 -57 -11 -103 -12 l-82 -2 1
153 c1 84 3 156 5 160 7 11 157 6 178 -6z"/>
<path d="M3469 6797 c0 -45 -1 -998 0 -1019 1 -16 13 -18 107 -18 l106 0 -4
30 c-3 17 -1 30 2 30 4 0 4 18 0 40 -4 22 -4 58 0 80 4 22 4 40 0 40 -6 0 -3
28 8 85 2 6 20 31 41 57 l38 48 47 -96 c25 -53 46 -102 46 -110 0 -8 5 -14 11
-14 5 0 8 -4 5 -9 -4 -5 -1 -11 4 -13 6 -2 12 -10 14 -18 2 -8 17 -45 34 -82
l31 -66 130 -1 130 -2 -34 63 c-53 98 -75 143 -75 155 0 6 -4 13 -8 15 -4 2
-28 44 -52 93 -25 50 -47 92 -50 95 -3 3 -25 44 -49 91 l-43 87 37 58 c21 33
37 61 36 63 -2 2 1 7 6 10 5 3 37 49 71 101 34 52 66 100 72 107 5 7 10 15 10
18 0 4 11 21 24 38 13 18 29 42 35 54 l11 22 -130 0 -130 -1 -43 -75 c-23 -41
-55 -98 -71 -127 -15 -28 -33 -54 -40 -58 -6 -4 -8 -8 -3 -8 4 0 -4 -18 -18
-40 -14 -22 -25 -44 -25 -50 0 -5 -4 -10 -9 -10 -5 0 -12 -8 -15 -17 -11 -30
-33 -64 -41 -64 -5 1 -7 25 -7 54 2 53 2 230 1 257 -1 8 0 35 0 60 2 84 9 78
-106 78 l-103 1 -1 -32z"/>
<path d="M4299 6812 c0 -9 -1 -249 -2 -532 l0 -515 270 -2 c149 -1 274 -3 279
-4 5 -1 21 -1 37 0 l27 1 0 90 c0 86 -1 90 -22 91 -13 1 -27 0 -33 -1 -5 -2
-26 -2 -45 0 -19 1 -42 2 -50 1 -24 -1 -224 0 -236 1 -7 1 -11 47 -11 139 0
125 2 138 19 142 10 3 18 2 18 -2 0 -3 17 -5 38 -3 39 3 75 3 155 -1 26 -1 47
1 47 4 0 3 14 4 30 1 l30 -4 0 86 c0 61 -4 86 -12 87 -7 1 -78 3 -158 4 -80 1
-150 3 -156 4 -7 1 -10 43 -10 124 l1 122 160 2 c88 1 177 2 198 2 l37 1 0 89
0 90 -305 0 c-279 0 -305 -2 -306 -17z"/>
<path d="M4989 6822 c-1 -8 -1 -164 0 -172 1 -3 58 -4 129 -3 l127 2 0 -445 0
-444 107 0 c79 0 108 3 109 13 4 48 3 65 -3 85 -4 12 -4 22 0 22 4 0 6 172 6
383 l-2 384 125 0 c68 1 127 4 131 8 4 4 8 44 8 90 l2 83 -369 0 c-203 0 -369
-3 -370 -6z"/>
<path d="M5866 6822 c-4 -7 -9 -201 -6 -237 0 -5 0 -193 0 -417 l0 -408 111 0
c62 0 109 3 106 7 -4 3 -2 12 4 20 6 7 7 13 3 13 -13 0 -12 233 1 242 7 5 7 8
0 8 -12 0 -14 288 -2 307 4 6 4 14 -1 17 -7 4 -9 132 -2 146 1 3 1 10 0 15 -8
34 -5 145 4 145 8 0 8 3 1 8 -6 4 -10 32 -10 62 1 30 -1 60 -3 67 -4 13 -198
18 -206 5z"/>
<path d="M6263 6817 c-5 -7 -8 -239 -7 -517 2 -591 1 -553 15 -544 6 3 53 6
105 5 l94 -2 1 338 c1 186 1 342 0 346 -3 19 17 -5 23 -26 3 -13 26 -68 52
-123 25 -54 51 -112 59 -129 7 -16 23 -52 35 -80 13 -27 35 -77 50 -111 15
-33 44 -96 64 -140 l37 -79 101 2 c55 1 104 6 107 11 3 6 6 246 5 534 l0 523
-102 2 c-62 0 -105 -3 -109 -10 -3 -5 -6 -161 -5 -346 1 -260 -2 -331 -11
-316 -6 11 -12 22 -12 25 -1 3 -14 32 -29 65 -29 62 -58 125 -96 210 -13 28
-35 77 -50 110 -15 33 -40 89 -56 125 -15 36 -33 68 -39 72 -5 4 -7 8 -2 8 4
0 1 13 -7 29 -15 29 -16 29 -115 29 -66 1 -102 -3 -108 -11z"/>
<path d="M9169 6827 c-1 -1 -2 -41 -3 -89 -1 -73 1 -88 14 -89 8 0 66 -1 128
-1 l112 1 0 -445 0 -444 110 0 110 0 -3 50 c-1 28 1 50 6 50 4 0 6 4 2 9 -5 9
-9 192 -4 216 1 6 1 14 0 19 -3 12 -3 128 -1 141 1 6 1 30 0 54 -5 121 -4 201
1 201 4 0 3 18 -1 39 -4 22 -3 47 3 56 7 14 6 16 -4 10 -11 -6 -11 -5 -2 5 6
7 9 18 6 26 -4 11 20 13 126 11 125 -2 131 -1 132 18 1 11 1 52 2 90 l1 70
-367 2 c-202 0 -368 0 -368 0z"/>
<path d="M10020 6772 c-2 -240 1 -717 5 -762 2 -30 9 -56 15 -58 5 -2 10 -9
10 -16 0 -54 83 -135 169 -165 154 -53 337 -19 423 79 42 47 80 149 74 197 -2
17 0 37 4 44 4 6 4 23 0 38 -4 14 -4 35 0 46 4 11 4 29 0 40 -4 10 -4 34 0 52
5 18 4 35 0 38 -4 3 -5 20 -1 37 9 40 9 38 1 93 -4 25 -4 45 -1 45 7 0 4 288
-3 307 -3 7 -1 13 4 13 5 0 7 7 4 15 -5 11 -27 14 -105 14 -54 0 -101 -5 -105
-10 -3 -5 -7 -186 -8 -402 -1 -216 -5 -403 -9 -415 -3 -13 -18 -35 -32 -48
-26 -24 -36 -27 -95 -27 -59 0 -69 3 -96 28 -15 14 -23 25 -19 25 4 0 3 6 -3
13 -6 6 -11 15 -11 20 -1 4 -2 8 -2 10 -6 13 -3 479 3 483 5 3 5 11 1 17 -5 7
-9 73 -9 147 -1 74 -2 140 -3 147 -1 9 -31 12 -106 12 l-105 0 0 -57z"/>
<path d="M10885 6720 c0 -69 -3 -110 -10 -110 -7 0 -7 -3 0 -8 14 -10 15 -122
1 -122 -8 0 -8 -3 0 -8 13 -9 13 -175 -1 -184 -7 -5 -7 -8 1 -8 13 0 13 -230
-1 -230 -6 0 -6 -3 1 -8 6 -4 10 -58 10 -142 l-1 -135 185 0 c192 1 211 3 273
29 49 20 128 77 122 87 -3 4 4 10 15 14 11 4 18 10 15 15 -3 5 -1 11 5 15 9 6
47 73 48 85 1 3 3 12 5 20 22 67 26 127 24 291 -1 140 -5 190 -16 202 -7 10
-11 17 -7 17 9 0 -25 82 -42 103 -8 9 -12 17 -7 17 11 0 -74 82 -110 106 -45
30 -123 57 -151 51 -13 -2 -24 -1 -24 3 0 5 -75 8 -168 9 l-167 0 0 -109z
m388 -95 c40 -19 72 -73 83 -140 3 -22 8 -43 11 -47 2 -5 0 -8 -5 -8 -4 0 -6
-22 -2 -50 3 -27 2 -56 -2 -65 -5 -8 -5 -15 -1 -15 10 0 10 -71 -1 -88 -4 -7
-3 -12 2 -12 5 0 6 -17 2 -40 -4 -22 -4 -40 0 -40 4 0 0 -24 -10 -52 -16 -52
-74 -123 -91 -113 -4 3 -10 1 -13 -4 -3 -4 -37 -9 -76 -10 l-71 -1 1 37 c0 21
0 45 -1 53 -1 17 0 443 1 539 1 36 4 69 6 73 9 14 128 2 167 -17z"/>
<path d="M11745 6296 l0 -531 107 -3 107 -3 -2 91 c-1 49 1 90 5 90 4 0 3 13
-2 29 -4 16 -6 32 -3 34 2 3 4 34 4 68 -1 35 -1 105 -2 154 0 50 0 95 1 100 1
6 1 15 0 20 -1 6 -1 37 0 70 2 70 2 60 -2 152 -1 40 1 75 4 78 3 4 3 18 -1 32
-4 14 -4 50 -1 80 4 36 2 57 -6 64 -7 5 -56 9 -111 8 l-99 -2 1 -531z"/>
<path d="M17039 6822 c-1 -4 -2 -107 -3 -229 -1 -144 2 -223 9 -223 6 0 6 -3
0 -8 -7 -5 -11 -107 -11 -303 l1 -297 107 -1 108 -2 1 43 c0 24 1 264 1 533
l1 490 -107 2 c-58 2 -107 -1 -107 -5z"/>
<path d="M17694 6816 c-15 -46 -37 -113 -38 -121 -1 -5 -14 -46 -28 -90 -14
-44 -44 -141 -67 -215 -24 -74 -57 -182 -76 -240 -18 -58 -49 -159 -69 -225
-21 -66 -41 -130 -46 -142 l-10 -23 116 0 c121 0 121 0 126 50 2 14 5 27 9 30
6 6 30 95 32 121 1 15 19 17 151 15 l150 -1 27 -105 27 -105 115 -3 c98 -2
115 0 113 12 -1 9 -5 19 -9 22 -4 4 -7 16 -7 26 0 10 -4 26 -10 36 -11 21 -73
222 -73 240 0 6 -3 12 -7 12 -4 0 -7 6 -7 13 0 12 -37 131 -55 179 -5 15 -10
30 -9 32 0 3 -6 23 -14 45 -7 22 -11 42 -8 45 4 3 1 6 -6 6 -6 0 -11 6 -9 13
1 6 -3 26 -9 42 -6 17 -30 91 -53 165 -61 201 -43 180 -156 178 -59 0 -97 -5
-100 -12z m147 -447 c21 -85 42 -166 45 -181 l7 -28 -102 0 c-96 0 -101 1 -92
18 6 11 12 30 15 43 13 65 34 147 43 169 3 8 7 22 9 30 1 8 5 22 7 30 2 8 8
30 12 48 4 18 9 31 12 29 2 -3 22 -74 44 -158z"/>
<path d="M18330 6294 l0 -534 298 0 297 0 -1 84 c-1 85 -8 111 -25 100 -6 -3
-54 -5 -107 -4 -53 0 -104 1 -112 0 -48 -1 -125 2 -130 5 -3 2 -6 196 -5 432
0 235 -1 434 -3 440 -3 9 -34 13 -108 12 l-104 0 0 -535z"/>
<path d="M19397 6822 c-3 -4 -4 -245 -4 -535 l0 -528 81 2 c45 0 86 0 91 -1 6
-1 19 -2 29 -1 18 1 19 11 13 296 -3 162 -9 300 -13 306 -5 8 -3 9 7 4 11 -7
12 -6 3 6 -6 8 -11 37 -12 64 l-2 50 20 -60 c11 -33 22 -69 24 -80 9 -37 15
-60 42 -145 14 -47 29 -98 31 -115 3 -16 9 -35 14 -40 4 -6 11 -24 14 -40 3
-17 7 -34 9 -40 2 -8 25 -86 31 -105 1 -3 7 -26 14 -52 l13 -46 74 -4 c73 -3
75 -2 80 22 3 14 8 32 12 40 3 8 6 20 7 25 1 6 8 33 17 60 9 28 26 84 37 125
12 41 28 95 36 120 7 25 26 90 41 145 15 55 30 102 33 105 3 3 7 16 9 30 1 13
6 28 10 32 7 7 6 -43 -3 -172 -2 -36 -7 -169 -10 -297 l-5 -232 94 -3 c116 -4
126 -2 125 25 0 27 0 155 1 216 1 25 3 48 6 52 2 4 0 10 -6 14 -6 4 -8 11 -4
16 3 6 5 88 5 182 -2 209 -1 258 5 268 2 4 0 10 -6 14 -6 4 -7 11 -4 17 8 13
7 244 -1 258 -4 7 -55 10 -142 8 -112 -3 -137 -6 -139 -18 -2 -8 -10 -39 -18
-69 -8 -30 -13 -58 -10 -62 2 -4 0 -10 -5 -13 -5 -3 -12 -23 -16 -43 -10 -48
-8 -39 -40 -158 -15 -55 -28 -104 -29 -110 -1 -5 -5 -19 -9 -30 -3 -11 -9 -31
-11 -45 -13 -62 -49 -196 -56 -203 -3 -4 -14 23 -24 60 -9 38 -19 76 -21 86
-3 9 -7 25 -9 35 -3 9 -16 60 -31 112 -14 52 -28 104 -30 115 -8 45 -76 302
-85 322 -8 21 -15 22 -144 22 -75 0 -137 -3 -139 -7z"/>
<path d="M20538 6827 c0 -1 -2 -241 -3 -534 l-1 -532 299 -3 c191 -2 301 1
305 7 3 5 7 45 8 88 2 72 1 79 -19 86 -12 5 -29 5 -38 0 -9 -4 -18 -6 -21 -4
-5 5 -47 6 -163 5 -49 0 -105 -1 -122 0 l-33 0 0 139 0 140 28 3 c15 2 38 1
52 -3 14 -3 34 -3 45 1 11 4 32 4 46 0 15 -4 32 -4 39 0 7 4 24 5 39 1 14 -4
40 -5 56 -1 l30 5 0 85 0 85 -160 1 c-88 1 -164 2 -170 3 -6 1 -9 48 -7 126
l3 124 188 -1 c104 0 193 2 198 5 7 4 10 135 4 169 -1 6 -598 11 -603 5z"/>
<path d="M21270 6294 l0 -536 198 4 c108 3 208 9 222 15 14 6 27 10 30 10 13
-2 78 42 115 78 69 67 127 191 125 271 0 16 1 40 3 54 2 14 -1 31 -6 38 -6 7
-6 12 0 12 10 0 8 193 -2 210 -3 6 -1 10 4 10 7 0 8 6 2 18 -5 9 -14 37 -21
62 -15 58 -33 100 -42 100 -5 0 -8 6 -8 13 0 23 -91 106 -147 133 -31 16 -74
28 -95 29 -21 0 -38 3 -38 6 0 4 -76 7 -170 8 l-170 0 0 -535z m359 344 c19
-6 44 -19 55 -29 11 -11 23 -19 28 -19 4 0 5 -7 2 -15 -4 -8 -2 -15 4 -15 37
0 42 -430 7 -521 -27 -69 -68 -93 -163 -94 l-76 0 -1 325 c0 179 2 338 4 353
3 27 6 28 55 26 28 0 66 -6 85 -11z"/>
<path d="M22130 6294 l0 -534 108 0 107 0 -1 528 c-1 290 -2 530 -3 534 0 4
-48 8 -106 7 l-105 0 0 -535z"/>
<path d="M22778 6791 c-7 -20 -12 -38 -13 -41 0 -3 -15 -50 -32 -105 -18 -55
-35 -113 -39 -130 -4 -16 -10 -34 -14 -40 -6 -8 -14 -32 -26 -80 -1 -5 -14
-48 -29 -95 -15 -47 -28 -89 -30 -95 -1 -5 -4 -17 -7 -25 -3 -8 -15 -44 -26
-80 -11 -36 -39 -125 -62 -198 -23 -73 -40 -135 -38 -137 6 -6 205 -8 216 -1
5 3 13 20 17 38 4 18 9 35 9 38 1 3 8 31 16 63 14 58 43 94 64 79 12 -9 204
-7 213 2 14 13 43 -18 49 -52 4 -20 13 -52 21 -69 7 -18 13 -35 12 -38 0 -3 2
-19 6 -35 l7 -30 114 0 c63 0 114 2 114 4 0 3 -15 53 -34 113 -92 289 -135
429 -136 435 0 5 -9 32 -19 60 -15 41 -58 177 -66 208 -1 3 -19 60 -40 127
l-38 122 -98 -1 -98 0 -13 -37z m142 -376 c12 -49 25 -97 27 -105 3 -8 7 -22
8 -30 2 -8 8 -30 13 -47 6 -18 8 -33 5 -33 -3 0 0 -6 6 -14 7 -8 8 -17 3 -20
-12 -7 -181 -10 -189 -3 -3 3 -2 14 1 24 4 10 7 19 8 20 0 2 9 35 19 75 27
101 28 105 35 131 3 12 6 27 8 32 2 6 6 27 11 49 10 48 16 38 45 -79z"/>
<path d="M24031 6817 c-6 -6 -11 -17 -11 -24 0 -7 -13 -52 -28 -100 -27 -85
-65 -203 -67 -213 -1 -3 -14 -45 -30 -95 -16 -49 -30 -94 -31 -100 -1 -5 -9
-29 -18 -53 -8 -23 -15 -44 -16 -47 0 -3 -1 -7 -1 -10 -1 -3 -2 -8 -3 -12 -1
-5 -6 -21 -12 -38 -6 -16 -16 -46 -22 -65 -6 -19 -23 -75 -39 -125 -15 -49
-28 -94 -28 -100 0 -5 -3 -12 -6 -15 -3 -3 -9 -18 -13 -33 l-7 -28 93 0 c51 0
101 0 112 0 10 0 20 2 22 4 2 2 15 47 28 100 14 54 27 101 31 106 3 6 37 9 75
8 39 -1 70 2 70 6 0 5 5 5 12 1 6 -4 38 -7 69 -6 34 1 61 -4 67 -11 8 -11 33
-101 49 -179 l5 -27 115 -3 114 -3 -5 30 c-3 17 -24 84 -45 150 -21 66 -53
167 -71 225 -17 58 -35 114 -39 125 -5 11 -13 36 -19 55 -12 41 -71 230 -108
345 -15 44 -27 85 -28 90 -11 54 -12 54 -110 54 -56 0 -98 -5 -105 -12z m114
-325 c1 -9 10 -46 20 -82 9 -36 19 -74 22 -85 5 -22 11 -49 12 -52 1 -2 2 -6
2 -10 1 -5 5 -17 9 -28 4 -11 10 -32 14 -47 l6 -27 -95 -3 c-53 -2 -96 1 -98
6 -3 9 46 202 60 236 3 8 7 27 9 41 9 64 35 98 39 51z"/>
<path d="M25546 6811 c-2 -9 -4 -249 -3 -533 l0 -518 309 0 c204 0 307 3 303
10 -3 6 -1 10 5 10 7 0 8 6 2 18 -4 9 -7 45 -6 80 l1 62 -98 -1 c-54 0 -102 2
-106 4 -5 3 -15 2 -22 -2 -7 -5 -30 -5 -52 -1 -22 4 -42 4 -44 0 -3 -4 -19 -5
-37 -1 -35 7 -38 15 -38 104 -1 193 -4 177 36 175 19 -1 37 1 40 4 3 4 18 3
32 -1 15 -5 36 -5 47 -1 11 4 32 4 46 0 15 -4 32 -4 39 0 6 4 27 4 45 0 18 -4
37 -5 42 -1 7 5 10 99 4 161 -1 14 -24 16 -161 15 -159 -1 -161 -1 -166 22 -4
13 -4 30 0 38 3 8 2 15 -2 15 -4 0 -6 24 -4 52 1 29 3 70 4 90 l2 37 160 0
c89 -1 177 -1 197 0 l37 1 -2 58 c-1 31 1 67 5 79 5 13 3 25 -4 32 -8 6 -120
10 -310 9 -264 -1 -297 -3 -301 -17z"/>
<path d="M27994 6823 c-7 -2 0 -26 17 -62 15 -32 31 -70 35 -85 3 -14 9 -26
13 -26 4 0 8 -7 8 -15 0 -8 10 -36 23 -62 12 -27 26 -57 30 -68 19 -49 64
-153 81 -187 10 -21 17 -38 14 -38 -2 0 9 -29 26 -65 29 -64 29 -65 29 -260
l0 -195 110 0 110 0 0 196 0 195 40 97 c23 53 45 106 50 117 34 76 67 151 67
155 0 3 10 27 22 54 12 28 24 60 27 73 4 13 11 23 17 23 6 0 8 3 5 6 -4 3 4
29 17 57 46 105 52 97 -78 96 l-115 -1 -15 -42 c-16 -42 -40 -115 -43 -128 -1
-5 -3 -10 -4 -13 -1 -3 -3 -8 -5 -12 -1 -5 -7 -21 -13 -36 -7 -16 -12 -32 -12
-37 0 -5 -5 -21 -12 -37 -6 -15 -12 -35 -14 -44 -2 -9 -9 -29 -15 -45 -15 -35
-16 -40 -18 -59 -2 -22 -21 -19 -21 3 0 10 -3 21 -6 25 -9 8 -141 396 -143
420 -1 7 -206 8 -227 0z"/>
<path d="M13565 6630 c-2 -8 -3 -32 -1 -52 2 -23 -2 -38 -8 -38 -7 0 -7 -3 -1
-8 6 -4 10 -44 10 -90 l0 -82 -106 0 -105 0 -1 -94 c0 -62 4 -96 11 -99 6 -2
51 -3 99 -2 52 0 91 -4 95 -10 10 -17 11 -64 1 -71 -5 -3 -6 -11 -2 -17 10
-17 11 -130 1 -144 -5 -6 -5 -14 1 -17 6 -4 8 -13 4 -21 -6 -17 -8 -16 115
-18 l84 -2 -4 33 c-2 17 -1 32 2 32 8 0 3 77 -6 92 -4 6 -3 9 2 5 8 -4 11 78
4 108 -6 27 5 30 103 30 l102 0 3 98 3 99 -43 -2 c-24 -1 -71 -1 -106 -1 l-62
1 3 51 c1 28 -1 53 -5 55 -5 3 -5 11 -1 17 9 14 10 108 1 113 -3 2 -4 13 -1
24 6 23 10 22 -105 24 -66 1 -83 -2 -87 -14z"/>
</g>
</svg>
